<svg width="150" height="150" viewBox="0 0 150 150" fill="none" xmlns="http://www.w3.org/2000/svg">
<path d="M150 75C150 116.421 116.421 150 75 150C33.5786 150 0 116.421 0 75C0 33.5786 33.5786 0 75 0C116.421 0 150 33.5786 150 75Z" fill="#F2F2F2"/>
<path fill-rule="evenodd" clip-rule="evenodd" d="M75 145C113.66 145 145 113.66 145 75C145 36.3401 113.66 5 75 5C36.3401 5 5 36.3401 5 75C5 113.66 36.3401 145 75 145ZM75 150C116.421 150 150 116.421 150 75C150 33.5786 116.421 0 75 0C33.5786 0 0 33.5786 0 75C0 116.421 33.5786 150 75 150Z" fill="black"/>
<path fill-rule="evenodd" clip-rule="evenodd" d="M99.905 70.5632C102.398 74.8444 103.776 79.7742 103.776 84.9001C103.776 89.9888 102.418 94.8841 99.9593 99.1435L75.1626 84.8377L99.905 70.5632Z" fill="#777777"/>
<path d="M47.4199 100.828C47.8646 101.649 48.5323 102.348 49.3691 102.831L72.719 116.312C74.3087 117.23 76.2672 117.23 77.8568 116.312L101.207 102.831C102.006 102.369 102.652 101.71 103.096 100.936L75.2363 84.7913L47.4199 100.828Z" fill="#2D2D2D"/>
<path fill-rule="evenodd" clip-rule="evenodd" d="M99.9075 70.5677L50.5477 99.0241C48.132 94.7927 46.7998 89.9411 46.7998 84.8999C46.7998 74.7222 52.2295 65.3176 61.0437 60.2287C69.8578 55.1399 80.7173 55.1399 89.5315 60.2287C93.9081 62.7556 97.4502 66.3465 99.9075 70.5677Z" fill="#A7A7A7"/>
<path d="M66.0773 84.9C66.0773 79.8131 70.2011 75.6894 75.2879 75.6894C78.6561 75.6894 81.602 77.4973 83.2081 80.1956L91.8935 75.1848C88.554 69.489 82.3676 65.6643 75.2879 65.6643C64.6643 65.6643 56.0522 74.2764 56.0522 84.9C56.0522 95.5235 64.6643 104.136 75.2879 104.136C82.4064 104.136 88.6217 100.269 91.9482 94.5213L83.2631 89.5107C81.6698 92.2607 78.6949 94.1105 75.2879 94.1105C70.2011 94.1105 66.0773 89.9868 66.0773 84.9Z" fill="white"/>
<path fill-rule="evenodd" clip-rule="evenodd" d="M99.327 70.2252L75.9771 56.7441C75.5506 56.4979 75.0251 56.4979 74.5986 56.7441L51.2487 70.2252C50.8222 70.4715 50.5595 70.9265 50.5595 71.419V98.3812C50.5595 98.8736 50.8222 99.3287 51.2487 99.5749L74.5986 113.056C75.0251 113.302 75.5506 113.302 75.9771 113.056L99.327 99.5749C99.7535 99.3287 100.016 98.8736 100.016 98.3812V71.419C100.016 70.9265 99.7535 70.4715 99.327 70.2252ZM77.8568 53.4884C76.2671 52.5706 74.3086 52.5706 72.7189 53.4884L49.369 66.9695C47.7793 67.8873 46.8 69.5834 46.8 71.419V98.3812C46.8 100.217 47.7793 101.913 49.369 102.831L72.7189 116.312C74.3086 117.23 76.2671 117.23 77.8568 116.312L101.207 102.831C102.796 101.913 103.776 100.217 103.776 98.3812V71.419C103.776 69.5834 102.796 67.8873 101.207 66.9695L77.8568 53.4884Z" fill="black"/>
<path fill-rule="evenodd" clip-rule="evenodd" d="M89.8868 81.8297V80.3259H91.7665V81.8297L94.0222 81.8297V80.3259H95.9019V81.8297L97.531 81.8297V83.7094L95.9019 83.7094L95.9019 85.965H97.531V87.8448H95.9019V89.4738H94.0222V87.8448H91.7665V89.4738H89.8868V87.8448H88.3831V85.965H89.8868V83.7094L88.3831 83.7094V81.8297L89.8868 81.8297ZM91.7665 83.7094L91.7665 85.965H94.0222L94.0222 83.7094L91.7665 83.7094Z" fill="white"/>
<path d="M100.057 40.9151C99.4047 40.9151 98.8335 40.7711 98.3439 40.4831C97.8543 40.1951 97.4703 39.7583 97.1919 39.1727C96.9231 38.5775 96.7887 37.8287 96.7887 36.9263C96.7887 36.0143 96.9183 35.2655 97.1775 34.6799C97.4367 34.0943 97.8111 33.6575 98.3007 33.3695C98.7903 33.0815 99.3759 32.9375 100.057 32.9375C100.787 32.9375 101.44 33.1055 102.016 33.4415C102.601 33.7679 103.062 34.2287 103.398 34.8239C103.744 35.4191 103.917 36.1199 103.917 36.9263C103.917 37.7423 103.744 38.4479 103.398 39.0431C103.062 39.6383 102.601 40.0991 102.016 40.4255C101.44 40.7519 100.787 40.9151 100.057 40.9151ZM95.4783 43.5935V33.0527H97.6239V34.6367L97.5807 36.9407L97.7247 39.2303V43.5935H95.4783ZM99.6687 39.0719C100.043 39.0719 100.374 38.9855 100.662 38.8127C100.96 38.6399 101.195 38.3951 101.368 38.0783C101.55 37.7519 101.641 37.3679 101.641 36.9263C101.641 36.4751 101.55 36.0911 101.368 35.7743C101.195 35.4575 100.96 35.2127 100.662 35.0399C100.374 34.8671 100.043 34.7807 99.6687 34.7807C99.2943 34.7807 98.9583 34.8671 98.6607 35.0399C98.3631 35.2127 98.1279 35.4575 97.9551 35.7743C97.7823 36.0911 97.6959 36.4751 97.6959 36.9263C97.6959 37.3679 97.7823 37.7519 97.9551 38.0783C98.1279 38.3951 98.3631 38.6399 98.6607 38.8127C98.9583 38.9855 99.2943 39.0719 99.6687 39.0719Z" fill="black"/>
<path d="M89.3188 40.7999V33.0527H91.4644V35.2415L91.1621 34.6079C91.3925 34.0607 91.7621 33.6479 92.2709 33.3695C92.7797 33.0815 93.3989 32.9375 94.1285 32.9375V35.0111C94.0325 35.0015 93.946 34.9967 93.8692 34.9967C93.7924 34.9871 93.7108 34.9823 93.6244 34.9823C93.01 34.9823 92.5108 35.1599 92.1268 35.5151C91.7524 35.8607 91.5652 36.4031 91.5652 37.1423V40.7999H89.3188Z" fill="black"/>
<path d="M85.1832 40.7999V39.2879L85.0392 38.9567V36.2495C85.0392 35.7695 84.8904 35.3951 84.5928 35.1263C84.3048 34.8575 83.8584 34.7231 83.2536 34.7231C82.8408 34.7231 82.4328 34.7903 82.0296 34.9247C81.636 35.0495 81.3 35.2223 81.0216 35.4431L80.2152 33.8735C80.6376 33.5759 81.1464 33.3455 81.7416 33.1823C82.3368 33.0191 82.9416 32.9375 83.556 32.9375C84.7368 32.9375 85.6536 33.2159 86.3064 33.7727C86.9592 34.3295 87.2856 35.1983 87.2856 36.3791V40.7999H85.1832ZM82.8216 40.9151C82.2168 40.9151 81.6984 40.8143 81.2664 40.6127C80.8344 40.4015 80.5032 40.1183 80.2728 39.7631C80.0424 39.4079 79.9272 39.0095 79.9272 38.5679C79.9272 38.1071 80.0376 37.7039 80.2584 37.3583C80.4888 37.0127 80.8488 36.7439 81.3384 36.5519C81.828 36.3503 82.4664 36.2495 83.2536 36.2495H85.3128V37.5599H83.4984C82.9704 37.5599 82.6056 37.6463 82.404 37.8191C82.212 37.9919 82.116 38.2079 82.116 38.4671C82.116 38.7551 82.2264 38.9855 82.4472 39.1583C82.6776 39.3215 82.9896 39.4031 83.3832 39.4031C83.7576 39.4031 84.0936 39.3167 84.3912 39.1439C84.6888 38.9615 84.9048 38.6975 85.0392 38.3519L85.3848 39.3887C85.2216 39.8879 84.924 40.2671 84.492 40.5263C84.06 40.7855 83.5032 40.9151 82.8216 40.9151Z" fill="black"/>
<path d="M75.1839 32.9376C75.7983 32.9376 76.3455 33.0624 76.8255 33.312C77.3151 33.552 77.6991 33.9264 77.9775 34.4352C78.2559 34.9344 78.3951 35.5776 78.3951 36.3648V40.8H76.1487V36.7104C76.1487 36.0864 76.0095 35.6256 75.7311 35.328C75.4623 35.0304 75.0783 34.8816 74.5791 34.8816C74.2239 34.8816 73.9023 34.9584 73.6143 35.112C73.3359 35.256 73.1151 35.4816 72.9519 35.7888C72.7983 36.096 72.7215 36.4896 72.7215 36.9696V40.8H70.4751V30.1152H72.7215V35.1984L72.2175 34.5504C72.4959 34.032 72.8943 33.6336 73.4127 33.3552C73.9311 33.0768 74.5215 32.9376 75.1839 32.9376Z" fill="black"/>
<path d="M64.7627 40.9727C63.9563 40.9727 63.1835 40.8671 62.4443 40.6559C61.7051 40.4351 61.1099 40.1519 60.6587 39.8063L61.4507 38.0495C61.8827 38.3567 62.3915 38.6111 62.9771 38.8127C63.5723 39.0047 64.1723 39.1007 64.7771 39.1007C65.2379 39.1007 65.6075 39.0575 65.8859 38.9711C66.1739 38.8751 66.3851 38.7455 66.5195 38.5823C66.6539 38.4191 66.7211 38.2319 66.7211 38.0207C66.7211 37.7519 66.6155 37.5407 66.4043 37.3871C66.1931 37.2239 65.9147 37.0943 65.5691 36.9983C65.2235 36.8927 64.8395 36.7967 64.4171 36.7103C64.0043 36.6143 63.5867 36.4991 63.1643 36.3647C62.7515 36.2303 62.3723 36.0575 62.0267 35.8463C61.6811 35.6351 61.3979 35.3567 61.1771 35.0111C60.9659 34.6655 60.8603 34.2239 60.8603 33.6863C60.8603 33.1103 61.0139 32.5871 61.3211 32.1167C61.6379 31.6367 62.1083 31.2575 62.7323 30.9791C63.3659 30.6911 64.1579 30.5471 65.1083 30.5471C65.7419 30.5471 66.3659 30.6239 66.9803 30.7775C67.5947 30.9215 68.1371 31.1423 68.6075 31.4399L67.8875 33.2111C67.4171 32.9423 66.9467 32.7455 66.4763 32.6207C66.0059 32.4863 65.5451 32.4191 65.0939 32.4191C64.6427 32.4191 64.2731 32.4719 63.9851 32.5775C63.6971 32.6831 63.4907 32.8223 63.3659 32.9951C63.2411 33.1583 63.1787 33.3503 63.1787 33.5711C63.1787 33.8303 63.2843 34.0415 63.4955 34.2047C63.7067 34.3583 63.9851 34.4831 64.3307 34.5791C64.6763 34.6751 65.0555 34.7711 65.4683 34.8671C65.8907 34.9631 66.3083 35.0735 66.7211 35.1983C67.1435 35.3231 67.5275 35.4911 67.8731 35.7023C68.2187 35.9135 68.4971 36.1919 68.7083 36.5375C68.9291 36.8831 69.0395 37.3199 69.0395 37.8479C69.0395 38.4143 68.8811 38.9327 68.5643 39.4031C68.2475 39.8735 67.7723 40.2527 67.1387 40.5407C66.5147 40.8287 65.7227 40.9727 64.7627 40.9727Z" fill="black"/>
<path d="M51.6356 40.9727C50.858 40.9727 50.1332 40.8479 49.4612 40.5983C48.7988 40.3391 48.2228 39.9743 47.7332 39.5039C47.2436 39.0335 46.8596 38.4815 46.5812 37.8479C46.3124 37.2143 46.178 36.5183 46.178 35.7599C46.178 35.0015 46.3124 34.3055 46.5812 33.6719C46.8596 33.0383 47.2436 32.4863 47.7332 32.0159C48.2324 31.5455 48.8132 31.1855 49.4756 30.9359C50.138 30.6767 50.8628 30.5471 51.65 30.5471C52.5236 30.5471 53.3108 30.7007 54.0116 31.0079C54.722 31.3055 55.3172 31.7471 55.7972 32.3327L54.2996 33.7151C53.954 33.3215 53.57 33.0287 53.1476 32.8367C52.7252 32.6351 52.2644 32.5343 51.7652 32.5343C51.2948 32.5343 50.8628 32.6111 50.4692 32.7647C50.0756 32.9183 49.7348 33.1391 49.4468 33.4271C49.1588 33.7151 48.9332 34.0559 48.77 34.4495C48.6164 34.8431 48.5396 35.2799 48.5396 35.7599C48.5396 36.2399 48.6164 36.6767 48.77 37.0703C48.9332 37.4639 49.1588 37.8047 49.4468 38.0927C49.7348 38.3807 50.0756 38.6015 50.4692 38.7551C50.8628 38.9087 51.2948 38.9855 51.7652 38.9855C52.2644 38.9855 52.7252 38.8895 53.1476 38.6975C53.57 38.4959 53.954 38.1935 54.2996 37.7903L55.7972 39.1727C55.3172 39.7583 54.722 40.2047 54.0116 40.5119C53.3108 40.8191 52.5188 40.9727 51.6356 40.9727Z" fill="black"/>
</svg>
