<svg width="100" height="100" viewBox="0 0 100 100" fill="none" xmlns="http://www.w3.org/2000/svg">
<path d="M100 50C100 77.6142 77.6142 100 50 100C22.3858 100 0 77.6142 0 50C0 22.3858 22.3858 0 50 0C77.6142 0 100 22.3858 100 50Z" fill="#F2F2F2"/>
<path fill-rule="evenodd" clip-rule="evenodd" d="M50 96.6667C75.7733 96.6667 96.6667 75.7733 96.6667 50C96.6667 24.2267 75.7733 3.33333 50 3.33333C24.2267 3.33333 3.33333 24.2267 3.33333 50C3.33333 75.7733 24.2267 96.6667 50 96.6667ZM50 100C77.6142 100 100 77.6142 100 50C100 22.3858 77.6142 0 50 0C22.3858 0 0 22.3858 0 50C0 77.6142 22.3858 100 50 100Z" fill="black"/>
<path fill-rule="evenodd" clip-rule="evenodd" d="M66.6033 47.0422C68.2655 49.8963 69.1837 53.1829 69.1837 56.6002C69.1837 59.9926 68.2789 63.2562 66.6395 66.0957L50.1084 56.5585L66.6033 47.0422Z" fill="#777777"/>
<path d="M31.6133 67.2185C31.9098 67.766 32.3548 68.2319 32.9127 68.554L48.4793 77.5413C49.5391 78.1532 50.8448 78.1532 51.9046 77.5413L67.4712 68.554C68.0043 68.2461 68.4345 67.807 68.7303 67.2908L50.1575 56.5276L31.6133 67.2185Z" fill="#2D2D2D"/>
<path fill-rule="evenodd" clip-rule="evenodd" d="M66.6051 47.0452L33.6985 66.0161C32.088 63.1952 31.2 59.9608 31.2 56.6C31.2 49.8149 34.8198 43.5451 40.6959 40.1526C46.572 36.76 53.8116 36.76 59.6877 40.1526C62.6054 41.8371 64.9669 44.231 66.6051 47.0452Z" fill="#A7A7A7"/>
<path d="M44.0516 56.5999C44.0516 53.2087 46.8007 50.4595 50.1919 50.4595C52.4374 50.4595 54.4013 51.6648 55.4721 53.4637L61.2623 50.1231C59.036 46.3259 54.9117 43.7761 50.1919 43.7761C43.1096 43.7761 37.3682 49.5175 37.3682 56.5999C37.3682 63.6823 43.1096 69.4237 50.1919 69.4237C54.9376 69.4237 59.0811 66.8459 61.2988 63.0141L55.5087 59.6737C54.4465 61.5071 52.4632 62.7403 50.1919 62.7403C46.8007 62.7403 44.0516 59.9911 44.0516 56.5999Z" fill="white"/>
<path fill-rule="evenodd" clip-rule="evenodd" d="M66.2179 46.8167L50.6513 37.8293C50.367 37.6652 50.0166 37.6652 49.7323 37.8293L34.1657 46.8167C33.8814 46.9809 33.7062 47.2843 33.7062 47.6126V65.5874C33.7062 65.9157 33.8814 66.219 34.1657 66.3832L49.7323 75.3706C50.0166 75.5348 50.367 75.5348 50.6513 75.3706L66.2179 66.3832C66.5022 66.219 66.6774 65.9157 66.6774 65.5874V47.6126C66.6774 47.2843 66.5022 46.9809 66.2179 46.8167ZM51.9044 35.6588C50.8446 35.047 49.539 35.047 48.4792 35.6588L32.9126 44.6462C31.8528 45.2581 31.2 46.3889 31.2 47.6126V65.5874C31.2 66.8111 31.8528 67.9418 32.9126 68.5537L48.4792 77.5411C49.539 78.153 50.8446 78.153 51.9044 77.5411L67.471 68.5537C68.5308 67.9418 69.1837 66.8111 69.1837 65.5874V47.6126C69.1837 46.3889 68.5308 45.2581 67.471 44.6462L51.9044 35.6588Z" fill="black"/>
<path fill-rule="evenodd" clip-rule="evenodd" d="M59.9246 54.553V53.5505H61.1778V54.553L62.6815 54.553V53.5505H63.9347V54.553L65.0207 54.553V55.8062L63.9347 55.8062L63.9347 57.3099H65.0207V58.5631H63.9347V59.6491H62.6815V58.5631H61.1778V59.6491H59.9246V58.5631H58.9221V57.3099H59.9246V55.8062L58.9221 55.8062V54.553L59.9246 54.553ZM61.1778 55.8062L61.1778 57.3099H62.6815L62.6815 55.8062L61.1778 55.8062Z" fill="white"/>
<path d="M66.7049 27.2767C66.2697 27.2767 65.8889 27.1807 65.5625 26.9887C65.2361 26.7967 64.9801 26.5055 64.7945 26.1151C64.6153 25.7183 64.5257 25.2191 64.5257 24.6175C64.5257 24.0095 64.6121 23.5103 64.7849 23.1199C64.9577 22.7295 65.2073 22.4383 65.5337 22.2463C65.8601 22.0543 66.2505 21.9583 66.7049 21.9583C67.1913 21.9583 67.6265 22.0703 68.0105 22.2943C68.4009 22.5119 68.7081 22.8191 68.9321 23.2159C69.1625 23.6127 69.2777 24.0799 69.2777 24.6175C69.2777 25.1615 69.1625 25.6319 68.9321 26.0287C68.7081 26.4255 68.4009 26.7327 68.0105 26.9503C67.6265 27.1679 67.1913 27.2767 66.7049 27.2767ZM63.6521 29.0623V22.0351H65.0825V23.0911L65.0537 24.6271L65.1497 26.1535V29.0623H63.6521ZM66.4457 26.0479C66.6953 26.0479 66.9161 25.9903 67.1081 25.8751C67.3065 25.7599 67.4633 25.5967 67.5785 25.3855C67.7001 25.1679 67.7609 24.9119 67.7609 24.6175C67.7609 24.3167 67.7001 24.0607 67.5785 23.8495C67.4633 23.6383 67.3065 23.4751 67.1081 23.3599C66.9161 23.2447 66.6953 23.1871 66.4457 23.1871C66.1961 23.1871 65.9721 23.2447 65.7737 23.3599C65.5753 23.4751 65.4185 23.6383 65.3033 23.8495C65.1881 24.0607 65.1305 24.3167 65.1305 24.6175C65.1305 24.9119 65.1881 25.1679 65.3033 25.3855C65.4185 25.5967 65.5753 25.7599 65.7737 25.8751C65.9721 25.9903 66.1961 26.0479 66.4457 26.0479Z" fill="black"/>
<path d="M59.5459 27.1999V22.0351H60.9763V23.4943L60.7747 23.0719C60.9283 22.7071 61.1747 22.4319 61.5139 22.2463C61.8531 22.0543 62.2659 21.9583 62.7523 21.9583V23.3407C62.6883 23.3343 62.6307 23.3311 62.5795 23.3311C62.5283 23.3247 62.4739 23.3215 62.4163 23.3215C62.0067 23.3215 61.6739 23.4399 61.4179 23.6767C61.1683 23.9071 61.0435 24.2687 61.0435 24.7615V27.1999H59.5459Z" fill="black"/>
<path d="M56.7889 27.1999V26.1919L56.6929 25.9711V24.1663C56.6929 23.8463 56.5937 23.5967 56.3953 23.4175C56.2033 23.2383 55.9057 23.1487 55.5025 23.1487C55.2273 23.1487 54.9553 23.1935 54.6865 23.2831C54.4241 23.3663 54.2001 23.4815 54.0145 23.6287L53.4769 22.5823C53.7585 22.3839 54.0977 22.2303 54.4945 22.1215C54.8913 22.0127 55.2945 21.9583 55.7041 21.9583C56.4913 21.9583 57.1025 22.1439 57.5377 22.5151C57.9729 22.8863 58.1905 23.4655 58.1905 24.2527V27.1999H56.7889ZM55.2145 27.2767C54.8113 27.2767 54.4657 27.2095 54.1777 27.0751C53.8897 26.9343 53.6689 26.7455 53.5153 26.5087C53.3617 26.2719 53.2849 26.0063 53.2849 25.7119C53.2849 25.4047 53.3585 25.1359 53.5057 24.9055C53.6593 24.6751 53.8993 24.4959 54.2257 24.3679C54.5521 24.2335 54.9777 24.1663 55.5025 24.1663H56.8753V25.0399H55.6657C55.3137 25.0399 55.0705 25.0975 54.9361 25.2127C54.8081 25.3279 54.7441 25.4719 54.7441 25.6447C54.7441 25.8367 54.8177 25.9903 54.9649 26.1055C55.1185 26.2143 55.3265 26.2687 55.5889 26.2687C55.8385 26.2687 56.0625 26.2111 56.2609 26.0959C56.4593 25.9743 56.6033 25.7983 56.6929 25.5679L56.9233 26.2591C56.8145 26.5919 56.6161 26.8447 56.3281 27.0175C56.0401 27.1903 55.6689 27.2767 55.2145 27.2767Z" fill="black"/>
<path d="M50.1226 21.9585C50.5322 21.9585 50.897 22.0417 51.217 22.2081C51.5434 22.3681 51.7994 22.6177 51.985 22.9569C52.1706 23.2897 52.2634 23.7185 52.2634 24.2433V27.2001H50.7658V24.4737C50.7658 24.0577 50.673 23.7505 50.4874 23.5521C50.3082 23.3537 50.0522 23.2545 49.7194 23.2545C49.4826 23.2545 49.2682 23.3057 49.0762 23.4081C48.8906 23.5041 48.7434 23.6545 48.6346 23.8593C48.5322 24.0641 48.481 24.3265 48.481 24.6465V27.2001H46.9834V20.0769H48.481V23.4657L48.145 23.0337C48.3306 22.6881 48.5962 22.4225 48.9418 22.2369C49.2874 22.0513 49.681 21.9585 50.1226 21.9585Z" fill="black"/>
<path d="M43.1752 27.3151C42.6376 27.3151 42.1224 27.2447 41.6296 27.1039C41.1368 26.9567 40.74 26.7679 40.4392 26.5375L40.9672 25.3663C41.2552 25.5711 41.5944 25.7407 41.9848 25.8751C42.3816 26.0031 42.7816 26.0671 43.1848 26.0671C43.492 26.0671 43.7384 26.0383 43.924 25.9807C44.116 25.9167 44.2568 25.8303 44.3464 25.7215C44.436 25.6127 44.4808 25.4879 44.4808 25.3471C44.4808 25.1679 44.4104 25.0271 44.2696 24.9247C44.1288 24.8159 43.9432 24.7295 43.7128 24.6655C43.4824 24.5951 43.2264 24.5311 42.9448 24.4735C42.6696 24.4095 42.3912 24.3327 42.1096 24.2431C41.8344 24.1535 41.5816 24.0383 41.3512 23.8975C41.1208 23.7567 40.932 23.5711 40.7848 23.3407C40.644 23.1103 40.5736 22.8159 40.5736 22.4575C40.5736 22.0735 40.676 21.7247 40.8808 21.4111C41.092 21.0911 41.4056 20.8383 41.8216 20.6527C42.244 20.4607 42.772 20.3647 43.4056 20.3647C43.828 20.3647 44.244 20.4159 44.6536 20.5183C45.0632 20.6143 45.4248 20.7615 45.7384 20.9599L45.2584 22.1407C44.9448 21.9615 44.6312 21.8303 44.3176 21.7471C44.004 21.6575 43.6968 21.6127 43.396 21.6127C43.0952 21.6127 42.8488 21.6479 42.6568 21.7183C42.4648 21.7887 42.3272 21.8815 42.244 21.9967C42.1608 22.1055 42.1192 22.2335 42.1192 22.3807C42.1192 22.5535 42.1896 22.6943 42.3304 22.8031C42.4712 22.9055 42.6568 22.9887 42.8872 23.0527C43.1176 23.1167 43.3704 23.1807 43.6456 23.2447C43.9272 23.3087 44.2056 23.3823 44.4808 23.4655C44.7624 23.5487 45.0184 23.6607 45.2488 23.8015C45.4792 23.9423 45.6648 24.1279 45.8056 24.3583C45.9528 24.5887 46.0264 24.8799 46.0264 25.2319C46.0264 25.6095 45.9208 25.9551 45.7096 26.2687C45.4984 26.5823 45.1816 26.8351 44.7592 27.0271C44.3432 27.2191 43.8152 27.3151 43.1752 27.3151Z" fill="black"/>
<path d="M34.4238 27.3151C33.9054 27.3151 33.4222 27.2319 32.9742 27.0655C32.5326 26.8927 32.1486 26.6495 31.8222 26.3359C31.4958 26.0223 31.2398 25.6543 31.0542 25.2319C30.875 24.8095 30.7854 24.3455 30.7854 23.8399C30.7854 23.3343 30.875 22.8703 31.0542 22.4479C31.2398 22.0255 31.4958 21.6575 31.8222 21.3439C32.155 21.0303 32.5422 20.7903 32.9838 20.6239C33.4254 20.4511 33.9086 20.3647 34.4334 20.3647C35.0158 20.3647 35.5406 20.4671 36.0078 20.6719C36.4814 20.8703 36.8782 21.1647 37.1982 21.5551L36.1998 22.4767C35.9694 22.2143 35.7134 22.0191 35.4318 21.8911C35.1502 21.7567 34.843 21.6895 34.5102 21.6895C34.1966 21.6895 33.9086 21.7407 33.6462 21.8431C33.3838 21.9455 33.1566 22.0927 32.9646 22.2847C32.7726 22.4767 32.6222 22.7039 32.5134 22.9663C32.411 23.2287 32.3598 23.5199 32.3598 23.8399C32.3598 24.1599 32.411 24.4511 32.5134 24.7135C32.6222 24.9759 32.7726 25.2031 32.9646 25.3951C33.1566 25.5871 33.3838 25.7343 33.6462 25.8367C33.9086 25.9391 34.1966 25.9903 34.5102 25.9903C34.843 25.9903 35.1502 25.9263 35.4318 25.7983C35.7134 25.6639 35.9694 25.4623 36.1998 25.1935L37.1982 26.1151C36.8782 26.5055 36.4814 26.8031 36.0078 27.0079C35.5406 27.2127 35.0126 27.3151 34.4238 27.3151Z" fill="black"/>
</svg>
