<svg width="300" height="314" viewBox="0 0 300 314" fill="none" xmlns="http://www.w3.org/2000/svg">
<path d="M150.002 0C113.09 0 83.1644 29.9511 83.1644 66.8945C83.1644 74.0762 84.2994 80.9929 86.3928 87.4804C86.7333 88.8267 87.2756 90.2992 87.9776 91.8643C90.9369 99.2227 95.1658 105.933 100.391 111.722C104.897 118.033 109.794 124.613 114.032 130.852C124.528 146.301 125.873 153.719 125.873 153.719H130.245L133.305 177.203H128.084V184.62H162.373L133.335 187.401V200.684C133.335 203.073 135.268 205.009 137.656 205.009H162.323C164.723 205.009 166.661 203.052 166.644 200.65L166.526 184.616H171.924V177.199H166.699L169.759 153.714H173.824C173.824 153.714 175.169 146.297 185.666 130.848C189.583 125.084 194.06 119.03 198.272 113.165C209.778 101.15 216.848 84.8467 216.848 66.8903C216.84 29.9511 186.914 0 150.002 0ZM132.12 153.719H149.077V177.203H135.18L132.12 153.719ZM164.828 177.199H150.931V153.714H167.888L164.828 177.199Z" fill="white"/>
<path d="M177.448 81.0606C173.009 81.0144 169.868 78.7004 169.553 75.5997C169.25 72.6252 172.071 69.331 175.867 68.9565C178.044 68.7419 180.537 69.0238 182.496 69.9284C186.023 71.5608 186.401 75.7554 183.631 78.5027C181.79 80.3286 179.478 80.9765 177.448 81.0606Z" fill="black"/>
<path d="M197.911 27.8855C180.167 5.21707 149.422 -1.79213 123.385 10.8884C118.139 13.4421 113.237 16.5008 109.105 20.8805C109.673 20.6575 110.236 20.4345 110.803 20.2157C121.678 16.0338 132.847 14.3509 144.382 16.627C154.677 18.6549 163.584 23.144 169.675 32.0969C172.218 35.8329 173.862 39.9349 174.316 44.4745C170.264 45.3117 168.347 47.9496 169.381 51.8455C169.927 53.907 171.033 56.1284 172.563 57.5547C175.775 60.546 179.411 63.0913 182.912 65.7671C187.255 69.0824 190.634 73.0792 192.076 78.4771C194.153 86.2478 190.369 94.7211 183.455 97.7419C182.547 98.1373 181.55 98.3393 180.655 98.6085C181.004 94.9188 181.458 91.5278 181.567 88.1284C181.601 87.0514 180.895 85.1876 180.205 85.0235C179.179 84.7795 177.696 85.4863 176.729 86.2183C175.644 87.0345 174.85 88.2799 174.055 89.4242C172.903 91.0945 172.008 92.9583 170.755 94.5444C167.989 98.0406 165.522 101.974 162.13 104.734C152.31 112.719 137.463 106.817 135.289 94.3803C134.091 87.5352 136.735 81.9648 141.301 77.2317C144.21 74.2194 147.522 71.5941 150.691 68.8384C153.832 66.1079 155.74 62.7001 156.476 58.6233C158.834 45.5894 150.788 33.0982 137.715 29.4884C121.708 25.0709 102.787 33.4179 94.4302 48.7153C87.7885 60.8699 87.8473 73.5841 92.6479 86.1426C100.929 107.789 116.932 120.966 139.556 124.988C162.298 129.031 181.689 121.689 196.696 104.086C215.108 82.4907 215.423 50.2636 197.911 27.8855ZM131.826 56.5239C131.788 53.2128 134.285 50.6464 137.585 50.6044C140.956 50.5623 143.663 53.2002 143.642 56.4986C143.621 59.7256 140.985 62.3046 137.715 62.3046C134.356 62.3046 131.863 59.856 131.826 56.5239Z" fill="black"/>
<path d="M4.91403 282.577L0 287.499V286.654C0 286.397 0 286.14 0 285.884C0 285.627 0.100887 285.396 0.306864 285.194L4.91403 280.583V282.577V282.577ZM0 290.112L5.37643 284.807V286.805L0.306864 291.727C0.15133 291.471 0.0630543 291.265 0.0378326 291.113C0.0126109 290.958 0 290.751 0 290.495V290.112ZM5.37643 272.278C5.37643 272.841 5.36382 273.212 5.3386 273.392C5.31338 273.573 5.09479 273.868 4.68704 274.276C4.5315 274.432 4.30451 274.671 3.99764 275.008C3.69078 275.34 3.37131 275.673 3.03922 276.009C2.70713 276.342 2.37505 276.661 2.03876 276.969C1.70667 277.276 1.46286 277.507 1.30733 277.659C1.25688 277.709 1.10135 277.814 0.844928 277.966C0.588507 278.121 0.407751 278.197 0.306864 278.197V277.427C0.306864 277.17 0.306864 276.914 0.306864 276.657C0.306864 276.401 0.432973 276.169 0.689394 275.967L5.37643 271.356V272.278ZM5.37643 275.967V277.89L0.306864 282.808V280.885L5.37643 275.967ZM0.306864 294.033L5.60763 288.728C5.70852 288.829 5.83883 289.06 5.99016 289.418C6.1457 289.775 6.24658 290.007 6.29703 290.108V290.183V290.415L1.30733 295.337C1.30733 295.388 1.20224 295.413 1.00046 295.413C0.744041 295.413 0.563285 295.27 0.462398 294.992C0.357308 294.71 0.306864 294.441 0.306864 294.184V294.033V294.033ZM5.60763 264.128L0.689394 269.051C0.689394 268.95 0.676783 268.807 0.651561 268.63C0.62634 268.449 0.613729 268.31 0.613729 268.209C0.613729 267.953 0.62634 267.696 0.651561 267.439C0.676783 267.183 0.790281 266.926 0.996258 266.669L5.60343 262.058V264.128H5.60763ZM5.60763 266.665V267.587C5.60763 267.843 5.62024 268.087 5.64546 268.319C5.67069 268.55 5.57821 268.794 5.37643 269.051L0.689394 273.662V271.588L5.60763 266.665ZM6.29703 244.064V245.68L1.30733 250.602H0.920593C0.920593 250.345 0.933204 250.013 0.958426 249.601C0.983648 249.193 1.09715 248.86 1.30312 248.599L5.91029 244.064H6.29703ZM5.9145 227.231V228.232L1.00046 233.151V232.149L5.9145 227.231ZM5.9145 230.921V232.843L1.00046 237.762V235.839L5.9145 230.921ZM5.9145 235.149C5.9145 235.25 5.92711 235.418 5.95233 235.65C5.97755 235.881 5.99016 236.02 5.99016 236.07C5.99016 236.377 5.99016 236.672 5.99016 236.954C5.99016 237.236 5.85985 237.505 5.60763 237.762L1.30733 241.99H1.00046V240.067L5.9145 235.149ZM5.9145 239.76V241.683L1.00046 246.601V244.678L5.9145 239.76ZM6.29703 248.292V250.291L1.00046 255.596V253.598L6.29703 248.292ZM5.9145 252.908H6.52823C6.52823 253.522 6.47778 254.01 6.37269 254.367C6.2676 254.725 6.01538 255.137 5.60343 255.596C5.29656 255.903 4.89722 256.303 4.4138 256.787C3.92618 257.275 3.45538 257.733 2.99298 258.171C2.53058 258.608 1.9673 259.159 1.30312 259.824H1.00046V257.826L5.9145 252.908ZM5.9145 257.519C5.9145 257.62 5.92711 257.763 5.95233 257.939C5.97755 258.12 5.99016 258.259 5.99016 258.36C5.99016 258.617 5.97755 258.873 5.95233 259.13C5.92711 259.387 5.80941 259.618 5.60763 259.82L1.00046 264.435V262.437L5.9145 257.519ZM7.91122 291.109L9.60107 291.416L4.22464 296.721H3.84211C3.58569 296.721 3.37971 296.709 3.22838 296.684C3.07285 296.658 2.8963 296.54 2.69032 296.339L7.91122 291.109ZM6.60389 281.273C6.60389 276.661 6.66695 272.038 6.79726 267.397C6.92337 262.761 7.06629 258.108 7.21762 253.446C7.37315 248.784 7.49926 244.131 7.60015 239.495C7.70104 234.859 7.70104 230.206 7.60015 225.544C9.59687 225.443 11.5936 225.262 13.5903 225.005C15.587 224.749 17.5838 224.623 19.5805 224.623H22.729C23.2923 224.98 23.6244 225.519 23.7294 226.238V230.466C23.7294 232.877 23.6622 235.22 23.5361 237.501C23.4058 239.781 23.0106 242.074 22.3465 244.38C22.502 244.279 22.7668 244.06 23.1536 243.727C23.5361 243.395 23.948 243.05 24.381 242.688C24.814 242.331 25.2133 241.998 25.5706 241.687C25.9279 241.38 26.1844 241.148 26.3399 240.997C27.6724 239.97 29.3455 239.28 31.3716 238.923C33.3936 238.565 35.2222 238.384 36.8616 238.384C38.707 238.384 40.3926 238.641 41.9311 239.154C43.4655 239.668 45.0544 240.282 46.6938 241.001C46.9503 241.102 47.3328 241.283 47.8456 241.54C48.3543 241.796 48.6401 241.952 48.6906 242.003C51.301 243.95 53.5415 246.025 55.4122 248.229C57.2828 250.434 58.6489 253.097 59.5233 256.223C59.5737 256.429 59.6494 256.723 59.7545 257.106C59.8554 257.489 59.91 257.733 59.91 257.838V261.372C59.91 264.654 59.435 267.995 58.4892 271.402C57.5392 274.81 56.1352 277.898 54.2646 280.667C52.3939 283.435 50.0651 285.703 47.2739 287.47C44.4827 289.237 41.2459 290.12 37.5594 290.12C37.2525 290.12 36.8784 290.12 36.4454 290.12C36.0082 290.12 35.55 290.108 35.0624 290.082C34.5748 290.057 34.1124 290.019 33.6794 289.969C33.2422 289.918 32.8723 289.838 32.5655 289.737C31.2329 289.224 29.955 288.597 28.7234 287.853C27.4959 287.112 26.3903 286.224 25.4193 285.202C25.3142 285.253 25.2385 285.358 25.1881 285.509C25.1377 285.665 25.083 285.766 25.0326 285.816C24.9821 285.972 24.9443 286.212 24.9191 286.548C24.8939 286.881 24.8686 287.238 24.8434 287.625C24.8182 288.008 24.793 288.37 24.7677 288.702C24.7425 289.035 24.7299 289.279 24.7299 289.435C24.6248 289.691 24.3474 289.868 23.885 289.973C23.4226 290.074 23.1409 290.129 23.0401 290.129C21.9639 290.179 21.0559 290.217 20.3119 290.242C19.5679 290.268 18.8154 290.305 18.0462 290.356C17.2769 290.406 16.6379 290.432 16.1251 290.432H15.9738H15.8182C15.7131 290.432 15.4735 290.419 15.0868 290.394C14.7043 290.368 14.2797 290.331 13.8215 290.28C13.3591 290.23 12.9387 290.192 12.5562 290.167C12.1737 290.141 11.9299 290.129 11.8248 290.129H9.82807C9.05881 290.028 8.45769 289.809 8.02472 289.477C7.58754 289.144 7.26806 288.719 7.06629 288.21C6.86031 287.697 6.7342 287.133 6.68376 286.519C6.63332 285.905 6.60809 285.24 6.60809 284.52V281.273H6.60389ZM12.2115 291.416C12.3124 291.416 12.531 291.441 12.8631 291.492C13.1952 291.542 13.4138 291.618 13.5146 291.723L8.60061 296.721H6.60389L11.5179 291.723C11.5684 291.622 11.6819 291.542 11.8626 291.492C12.0434 291.441 12.1611 291.416 12.2115 291.416ZM18.126 291.727L13.212 296.726C12.9051 296.726 12.6487 296.751 12.4427 296.801C12.1863 296.852 11.9551 296.89 11.7533 296.915C11.5474 296.94 11.3708 296.978 11.2153 297.028H11.0597H10.8285L16.1293 291.723H18.126V291.727ZM22.7332 291.416C22.6827 291.467 22.6197 291.572 22.5398 291.723C22.4642 291.879 22.3969 292.005 22.3465 292.106C22.2414 292.207 22.0396 292.413 21.7327 292.72C21.4259 293.027 21.1064 293.36 20.7743 293.722C20.4422 294.079 20.1227 294.412 19.8159 294.723C19.509 295.034 19.2778 295.236 19.1265 295.337C18.9205 295.543 18.6136 295.813 18.2059 296.145C17.7939 296.477 17.5417 296.671 17.4366 296.721H16.4362H15.4357L20.3497 291.723C20.4506 291.723 20.6944 291.685 21.0812 291.61C21.4637 291.534 21.7832 291.467 22.0396 291.416H22.3465H22.7332ZM27.6514 289.111L27.7271 289.035C27.9835 289.035 28.2273 289.111 28.4585 289.266C28.6897 289.422 28.8537 289.573 28.9588 289.729L23.7379 295.034H23.5067C23.0947 295.034 22.7122 294.803 22.3549 294.344L27.6514 289.111ZM24.0405 265.819C24.0405 267.153 24.3474 268.457 24.9611 269.741C25.5748 271.024 26.3819 272.177 27.3824 273.199C28.3829 274.225 29.5052 275.058 30.7621 275.698C32.0148 276.337 33.3095 276.657 34.6421 276.657C35.8695 276.657 37.0087 276.375 38.0596 275.812C39.1063 275.248 40.0563 274.533 40.9012 273.657C41.7462 272.787 42.4608 271.785 43.0535 270.658C43.642 269.53 44.117 268.428 44.4743 267.351C44.4743 267.3 44.5248 267.069 44.6299 266.661C44.6803 266.455 44.7307 266.278 44.7854 266.122V263.123V260.123C44.6803 259.559 44.5668 259.214 44.4407 259.084C44.3104 258.958 44.096 258.634 43.7891 258.125C43.2258 257.254 42.713 256.522 42.2548 255.933C41.7924 255.344 41.103 254.767 40.1824 254.203C39.1567 253.64 38.2235 253.164 37.3786 252.781C36.5337 252.399 35.5206 252.205 34.3436 252.205C32.3973 252.205 30.7705 252.6 29.4674 253.396C28.1601 254.191 27.1134 255.23 26.3189 256.509C25.5244 257.792 24.9485 259.239 24.5912 260.851C24.2171 262.475 24.0405 264.128 24.0405 265.819ZM25.4235 295.724L30.3375 290.726H30.4931C31.0017 290.726 31.4641 290.852 31.8761 291.109L26.651 296.339C26.651 296.389 26.6257 296.414 26.5753 296.414H26.3441C26.239 296.414 26.0372 296.376 25.7304 296.301C25.4235 296.225 25.268 296.057 25.268 295.8L25.4235 295.724ZM26.3441 287.499C26.4996 287.499 26.5753 287.613 26.5753 287.844C26.5753 288.076 26.4996 288.189 26.3441 288.189C26.1381 288.189 26.0372 288.076 26.0372 287.844C26.0372 287.613 26.1381 287.499 26.3441 287.499ZM31.2581 254.212L31.565 254.056L31.8719 253.9C31.9728 253.9 32.2292 253.85 32.6411 253.745C33.0489 253.644 33.3557 253.589 33.5617 253.589H33.7173H33.8728L28.6477 258.827H26.9578V258.52L31.2581 254.212ZM35.9452 291.416V291.723L30.8756 296.721H28.9545L34.2553 291.416H35.9452ZM36.1764 253.905H36.3319C36.8952 253.905 37.2777 254.136 37.4837 254.595L32.2628 259.82H32.1073C31.6449 259.82 31.2371 259.589 30.8798 259.13L36.1764 253.905ZM40.401 291.416C40.401 291.467 40.3758 291.572 40.3253 291.723C40.2749 291.879 40.2203 292.005 40.1698 292.106C39.7074 292.569 39.2492 293.065 38.7868 293.604C38.3244 294.142 37.8284 294.643 37.2903 295.102C36.7523 295.564 36.1764 295.947 35.5626 296.254C34.9489 296.561 34.2805 296.717 33.5659 296.717H33.2591L38.1731 291.719C38.4295 291.669 38.6817 291.618 38.9424 291.563C39.1441 291.513 39.3627 291.488 39.5939 291.488C39.8251 291.488 40.0143 291.462 40.1698 291.412H40.3253H40.401V291.416ZM33.8728 260.514L38.8667 255.596H39.0222C39.0727 255.596 39.0979 255.583 39.0979 255.558C39.0979 255.533 39.1231 255.52 39.1736 255.52C39.3753 255.52 39.6065 255.558 39.863 255.634C40.1194 255.71 40.2455 255.903 40.2455 256.21C40.2455 256.261 40.2329 256.311 40.2076 256.366C40.1824 256.416 40.1698 256.496 40.1698 256.597C40.0143 256.753 39.7326 257.018 39.3249 257.405C38.9129 257.788 38.48 258.213 38.0176 258.671C37.5552 259.134 37.1348 259.568 36.7523 259.98C36.3697 260.392 36.1007 260.67 35.9452 260.826C35.8401 260.927 35.6635 261.044 35.4071 261.171C35.1507 261.301 34.9952 261.415 34.9447 261.516C34.8943 261.516 34.7766 261.465 34.6 261.36C34.4193 261.259 34.3058 261.179 34.2553 261.128C34.2049 261.128 34.1418 261.091 34.062 261.015C33.9863 260.939 33.919 260.876 33.8686 260.821V260.59V260.514H33.8728ZM41.3973 257.519H41.4729C41.5234 257.519 41.5486 257.506 41.5486 257.481C41.5486 257.456 41.5738 257.443 41.6243 257.443C41.8807 257.443 42.0194 257.557 42.0446 257.788C42.0699 258.019 42.0825 258.238 42.0825 258.44V258.823L37.1684 263.741L37.0129 263.817L36.8574 263.741C36.7523 263.64 36.6009 263.472 36.395 263.24C36.189 263.009 36.1133 262.845 36.1638 262.74L41.3973 257.519ZM43.0871 260.131H43.394V261.747L38.48 266.665C38.4295 266.665 38.3749 266.64 38.3244 266.589L38.1689 266.434C38.1184 266.278 38.0386 266.076 37.9377 265.819C37.8326 265.563 37.8074 265.437 37.862 265.437L43.0871 260.131ZM41.0904 271.049C40.834 271.562 40.4262 272.139 39.863 272.778C39.2997 273.418 38.7364 273.817 38.1731 273.969L41.0904 271.049ZM43.394 264.435C43.394 264.486 43.4066 264.616 43.4318 264.818C43.457 265.024 43.4697 265.151 43.4697 265.201C43.4697 265.508 43.457 265.777 43.4318 266.009C43.4066 266.24 43.2889 266.459 43.0871 266.661L38.48 271.352V269.354L43.394 264.435ZM46.0044 289.725C45.2856 290.596 44.3524 291.542 43.2006 292.569C42.0488 293.595 40.9349 294.311 39.8587 294.723L43.7765 290.726C43.827 290.676 43.9026 290.625 44.0077 290.57C44.1086 290.52 44.1885 290.495 44.2389 290.495C44.2894 290.495 44.365 290.469 44.4701 290.419C44.571 290.368 44.8274 290.251 45.2394 290.074C45.6471 289.893 45.9036 289.779 46.0044 289.725Z" fill="white"/>
<path d="M68.7796 246.601V248.907L63.8656 253.825V251.52L68.7796 246.601ZM68.7796 251.137V253.211L63.8656 258.129V256.206L68.7796 251.137ZM68.7796 255.521V257.443L63.8656 262.361V260.439L68.7796 255.521ZM68.7796 260.132C68.8805 260.233 68.9604 260.439 69.0108 260.746C69.0613 261.053 69.1369 261.259 69.242 261.36V261.592V261.667L63.8656 266.973V265.05L68.7796 260.132ZM69.242 242.684L68.7796 244.3L64.1725 248.911V248.221C64.1725 247.964 64.1851 247.733 64.2103 247.531C64.2355 247.325 64.349 247.123 64.555 246.917L68.7796 242.689H69.242V242.684ZM64.1725 269.278C64.2734 269.177 64.3532 269.047 64.4037 268.895C64.4541 268.74 64.5046 268.664 64.5592 268.664L69.4732 263.746V264.747C69.4732 265.26 69.4606 265.605 69.4354 265.786C69.4102 265.967 69.1916 266.262 68.7838 266.67C68.6283 266.825 68.3635 267.107 67.9767 267.515C67.5942 267.928 67.1696 268.361 66.7115 268.824C66.2533 269.287 65.8161 269.72 65.4041 270.132C64.9922 270.544 64.7147 270.822 64.5592 270.978C64.5088 270.877 64.4541 270.658 64.4037 270.326C64.3532 269.993 64.2734 269.775 64.1725 269.674V269.442V269.278ZM64.555 273.275L69.7801 267.974C69.8305 268.075 69.8936 268.294 69.9735 268.626C70.0491 268.958 70.1122 269.177 70.1668 269.278V269.434V269.665L64.8661 274.891C64.761 274.634 64.6727 274.402 64.597 274.201C64.5214 273.994 64.4835 273.767 64.4835 273.511L64.555 273.275ZM70.4695 271.588C70.7259 271.689 70.852 271.882 70.852 272.164C70.852 272.446 70.852 272.64 70.852 272.741C70.852 272.791 70.8394 272.842 70.8142 272.896C70.789 272.947 70.7764 272.997 70.7764 273.052V273.283L65.8623 278.202H65.5555V276.51L70.4695 271.588ZM66.1692 280.503L71.47 275.278C71.5204 275.379 71.5835 275.585 71.6633 275.892C71.739 276.199 71.7768 276.405 71.7768 276.506V276.737V276.813L66.5559 282.118C66.2995 281.761 66.1734 281.323 66.1734 280.81V280.503H66.1692ZM67.1654 283.81L72.1594 278.812H72.235C72.4914 278.812 72.6554 278.942 72.7352 279.194C72.8109 279.451 72.8487 279.657 72.8487 279.809C72.8487 280.221 72.7184 280.553 72.4662 280.81L68.0902 285.114L67.5522 285.421C67.3462 285.215 67.2327 285.026 67.2075 284.845C67.1823 284.664 67.1696 284.449 67.1696 284.193V283.81H67.1654ZM68.3971 287.344L68.4728 287.188C68.4728 287.138 68.498 287.087 68.5484 287.032L73.4625 282.114H73.618H73.6937C73.7946 282.215 73.9249 282.333 74.0762 282.459C74.2317 282.59 74.3326 282.703 74.3831 282.804V282.96V283.116L69.2378 288.341C68.6746 288.189 68.3971 287.857 68.3971 287.344ZM70.4695 242.684C70.4695 241.3 70.8016 240.492 71.47 240.261C72.1341 240.03 73.0295 239.916 74.1561 239.916C74.3578 239.916 74.6563 239.941 75.0388 239.992C75.4214 240.042 75.6399 240.067 75.6904 240.067C76.3041 240.118 77.1112 240.181 78.1117 240.261C79.1121 240.337 80.0958 240.429 81.0668 240.53C82.0379 240.631 83.2191 240.787 84.5979 240.993L84.9047 241.3V252.525C84.9047 252.988 84.9173 253.703 84.9426 254.679C84.9678 255.655 85.0056 256.665 85.0561 257.717C85.1065 258.769 85.1443 259.74 85.1696 260.637C85.1948 261.533 85.2074 262.109 85.2074 262.366C85.2074 262.521 85.2452 262.828 85.3209 263.287C85.3966 263.75 85.4764 264.276 85.5521 264.865C85.6278 265.454 85.6908 266.043 85.7455 266.632C85.7959 267.221 85.8463 267.671 85.901 267.978C86.1574 269.72 86.6324 271.192 87.3218 272.4C88.0112 273.603 89.1756 274.567 90.815 275.282C90.9706 275.332 91.3026 275.425 91.8155 275.551C92.3241 275.681 92.6604 275.795 92.816 275.896H92.9715C95.4306 275.896 97.2466 275.156 98.4236 273.666C99.6006 272.181 100.37 270.284 100.727 267.978V261.6C100.727 259.193 100.715 257.027 100.689 255.104C100.664 253.181 100.546 251.019 100.345 248.608C100.345 248.452 100.319 248.12 100.269 247.607C100.219 247.094 100.155 246.542 100.076 245.953C99.9999 245.364 99.9327 244.813 99.8822 244.3C99.8318 243.787 99.8066 243.454 99.8066 243.299C99.8066 243.143 99.8318 242.684 99.8822 241.914C99.9327 241.145 99.9831 240.606 100.038 240.299C100.038 240.248 100.088 240.143 100.193 239.992C100.294 239.836 100.349 239.71 100.349 239.609C101.219 239.403 101.95 239.314 102.539 239.34C103.127 239.365 103.855 239.378 104.729 239.378H106.957C107.314 239.378 107.915 239.39 108.76 239.415C109.605 239.441 110.501 239.466 111.446 239.491C112.392 239.516 113.275 239.542 114.095 239.567C114.914 239.592 115.478 239.605 115.785 239.605C116.091 239.811 116.323 240.105 116.474 240.488C116.625 240.871 116.718 241.283 116.743 241.717C116.768 242.154 116.781 242.588 116.781 243.025C116.781 243.463 116.781 243.833 116.781 244.14C116.781 248.137 116.613 252.058 116.281 255.899C115.948 259.745 115.448 263.661 114.784 267.658C114.784 267.759 114.717 268.134 114.591 268.773C114.46 269.413 114.322 270.157 114.17 271.003C114.019 271.849 113.851 272.694 113.67 273.54C113.489 274.386 113.351 275.067 113.25 275.576C112.787 277.423 112.161 279.102 111.367 280.612C110.572 282.123 109.563 283.625 108.332 285.11C107.104 286.494 105.784 287.466 104.376 288.03C102.968 288.593 101.446 289.157 99.8066 289.721C99.5502 289.771 99.2685 289.835 98.9616 289.914C98.6548 289.99 98.474 290.028 98.4236 290.028H88.8982C88.6418 290.028 88.2088 289.952 87.5908 289.797C86.9729 289.641 86.5147 289.49 86.2079 289.334C84.0556 288.307 82.0589 287.142 80.2177 285.838C78.3765 284.533 76.6572 282.981 75.0725 281.189C74.6605 280.675 74.3158 280.036 74.0342 279.266C73.7525 278.496 73.5592 277.806 73.4583 277.192C73.3027 276.578 73.101 275.745 72.8445 274.693C72.5881 273.641 72.3443 272.593 72.1131 271.542C71.8819 270.49 71.6633 269.556 71.4615 268.735C71.2556 267.915 71.1547 267.427 71.1547 267.275C71.1547 267.175 71.1295 266.93 71.079 266.543C71.0286 266.161 70.9907 265.748 70.9655 265.315C70.9403 264.882 70.8983 264.469 70.852 264.086C70.8016 263.704 70.7764 263.46 70.7764 263.354C70.7764 263.148 70.7385 262.715 70.6629 262.046C70.5872 261.381 70.5199 260.918 70.4695 260.662V242.684V242.684ZM70.4695 289.342L75.6904 284.117L76.6909 285.118L71.47 290.344L71.3943 290.419H71.2388L71.1631 290.344C71.058 290.344 70.9319 290.255 70.7806 290.074C70.625 289.893 70.5241 289.78 70.4737 289.729V289.498V289.342H70.4695ZM78.0738 286.347H78.1495H78.3807C78.4816 286.448 78.6497 286.578 78.8809 286.73C79.1121 286.885 79.2509 286.986 79.3013 287.037L74.1561 292.418H73.8492C73.3364 292.418 72.9791 292.186 72.7731 291.728L78.0738 286.347ZM75.3835 293.339L80.6843 288.034L80.9912 288.189L81.298 288.345C81.4998 288.501 81.6175 288.602 81.6427 288.652C81.6679 288.703 81.6806 288.833 81.6806 289.035V289.342C81.525 289.498 81.2434 289.792 80.8356 290.226C80.4237 290.659 79.9907 291.109 79.5283 291.572C79.0659 292.035 78.6329 292.456 78.221 292.838C77.809 293.221 77.5316 293.491 77.376 293.646C77.271 293.747 77.0944 293.89 76.838 294.067C76.5816 294.248 76.426 294.336 76.3756 294.336C76.3251 294.336 76.1696 294.248 75.9132 294.067C75.6568 293.886 75.476 293.747 75.3751 293.646V293.491V293.339H75.3835ZM78.3807 294.955L83.6815 289.729C83.6815 289.679 83.7571 289.704 83.9127 289.805C84.0682 289.906 84.1691 289.986 84.2195 290.036C84.3204 290.036 84.4003 290.087 84.4507 290.192C84.5012 290.293 84.5516 290.348 84.6063 290.348V290.503V290.735L79.6922 295.653H79.461C79.2551 295.653 79.0239 295.628 78.7716 295.577C78.5152 295.527 78.3891 295.371 78.3891 295.115V294.955H78.3807ZM86.2163 291.265H88.213L82.9921 296.646H82.6096C82.3531 296.646 82.1219 296.633 81.9202 296.608C81.7142 296.583 81.5082 296.494 81.3064 296.339L86.2163 291.265ZM92.5133 291.728L87.5993 296.646H85.6025L90.5166 291.728H92.5133ZM96.7379 291.728V291.959L92.5133 296.339C92.2569 296.545 91.9878 296.646 91.7062 296.646C91.4246 296.646 91.1303 296.646 90.8234 296.646H89.823L94.737 291.728H96.7379V291.728ZM93.2027 249.908C93.2027 249.752 93.2279 249.513 93.2783 249.176C93.3288 248.844 93.4045 248.65 93.5095 248.6L98.1167 243.989H98.4236V245.68L93.5095 250.598C93.4045 250.497 93.3288 250.367 93.2783 250.215C93.2279 250.064 93.2027 249.959 93.2027 249.908ZM98.8103 247.91C98.9659 248.116 99.0541 248.305 99.0793 248.486C99.1046 248.667 99.1172 248.856 99.1172 249.062V249.601L94.2032 254.519H93.8206V252.828L98.8103 247.91ZM99.1172 251.831H99.6552C99.6552 252.496 99.4871 253.127 99.155 253.716C98.8229 254.305 98.4236 254.868 97.9654 255.407C97.503 255.945 97.0154 256.446 96.5067 256.905C95.9939 257.368 95.5357 257.776 95.1237 258.133C95.0186 258.184 94.8547 258.302 94.6235 258.478C94.3923 258.659 94.2494 258.747 94.2032 258.747V256.749L99.1172 251.831ZM99.3484 256.211V258.133L94.4343 263.051L94.2032 261.36L99.3484 256.211ZM99.3484 260.439V262.361L94.4343 267.28V265.357L99.3484 260.439ZM99.3484 265.05V266.973L94.4343 271.891V269.968L99.3484 265.05ZM98.8103 270.124V270.279C98.3984 271.1 97.8897 271.971 97.276 272.892C96.6623 273.813 95.8173 274.276 94.7412 274.276H94.4343L98.8103 269.972V270.124ZM102.728 290.344L98.8103 294.34C98.7599 294.34 98.5539 294.429 98.1966 294.61C97.8393 294.791 97.5829 294.904 97.4273 294.955C97.2718 295.056 96.9397 295.186 96.4269 295.338C95.914 295.493 95.5819 295.594 95.4264 295.645L99.8024 291.265C99.8528 291.265 99.9285 291.24 100.034 291.189L100.34 291.034C100.542 290.933 100.904 290.802 101.417 290.651C101.925 290.495 102.236 290.394 102.337 290.344H102.493H102.728V290.344Z" fill="white"/>
<path d="M125.73 265.13V267.128L120.816 272.047V270.048L125.73 265.13ZM125.73 269.358H126.269C126.269 269.564 126.243 269.96 126.193 270.549C126.142 271.138 125.987 271.483 125.73 271.588L120.816 276.662V274.281L125.73 269.358ZM126.193 273.662H126.424V275.278L121.51 280.196L120.821 278.888L126.193 273.662ZM126.193 262.055L121.123 267.128V266.207C121.123 265.95 121.123 265.706 121.123 265.475C121.123 265.244 121.249 265 121.506 264.743L126.193 260.132V262.055ZM127.113 254.907C127.063 255.062 127.008 255.344 126.958 255.752C126.907 256.165 126.828 256.442 126.727 256.598C126.727 256.699 126.676 256.867 126.571 257.099C126.466 257.33 126.416 257.469 126.416 257.519L121.808 262.055V261.979V261.747C121.909 261.44 122.04 260.99 122.191 260.401C122.347 259.812 122.447 259.518 122.498 259.518L127.113 254.907ZM121.817 282.119L127.118 276.969L127.731 278.198L122.51 283.503H122.355H122.124C122.124 283.452 122.099 283.309 122.048 283.082C121.998 282.851 121.918 282.687 121.817 282.582V282.35V282.119V282.119ZM128.421 280.196C128.883 280.554 129.11 280.941 129.11 281.349V281.58L123.809 286.806C123.603 286.806 123.503 286.705 123.503 286.498C123.397 286.397 123.297 286.191 123.196 285.884C123.145 285.729 123.12 285.602 123.12 285.501L128.421 280.196ZM129.11 248.524C129.11 249.088 128.929 249.74 128.572 250.485C128.215 251.229 127.828 251.806 127.42 252.214C127.315 252.37 127.113 252.609 126.807 252.946C126.5 253.278 126.163 253.611 125.806 253.947C125.449 254.28 125.117 254.599 124.806 254.907C124.499 255.214 124.268 255.445 124.116 255.597V255.214C124.318 254.751 124.524 254.318 124.73 253.905C124.886 253.548 125.062 253.19 125.268 252.828C125.47 252.471 125.625 252.163 125.73 251.907C126.138 251.242 126.664 250.598 127.307 249.984C127.946 249.37 128.547 248.806 129.11 248.293V248.524V248.524ZM124.81 288.19L129.724 283.271L129.879 283.116C130.136 283.116 130.287 283.246 130.342 283.499C130.392 283.755 130.417 283.987 130.417 284.189C130.417 284.344 130.405 284.508 130.38 284.689C130.354 284.87 130.266 285.034 130.111 285.19L125.735 289.418H125.503C125.197 289.418 125.003 289.342 124.928 289.187C124.852 289.031 124.814 288.829 124.814 288.573V288.19H124.81ZM126.424 291.11L131.645 285.804L132.645 286.806L127.424 292.111H127.269H127.113C127.008 292.01 126.895 291.879 126.769 291.728C126.638 291.572 126.525 291.471 126.424 291.421V291.189V291.11ZM127.42 267.128C127.42 264.667 127.559 262.029 127.841 259.211C128.122 256.392 128.711 253.674 129.606 251.061C130.502 248.448 131.767 246.105 133.406 244.027C135.046 241.953 137.219 240.425 139.934 239.454C141.212 238.94 142.457 238.532 143.659 238.225C144.861 237.918 146.126 237.762 147.459 237.762C150.326 237.762 152.999 238.263 155.484 239.26C157.968 240.261 160.436 241.401 162.895 242.68C162.895 242.731 162.92 242.756 162.97 242.756H163.126L163.202 242.68C163.252 242.63 163.328 242.474 163.433 242.218C163.534 241.961 163.588 241.784 163.588 241.679V226.92C163.588 226.819 163.664 226.651 163.819 226.42C163.975 226.188 164.101 226.049 164.202 225.999C165.429 225.742 166.699 225.603 168.002 225.578C169.309 225.553 170.549 225.54 171.726 225.54H176.414C176.615 225.641 176.796 225.759 176.952 225.885C177.107 226.016 177.233 226.129 177.334 226.23C177.334 226.588 177.347 227.219 177.372 228.115C177.397 229.011 177.41 229.975 177.41 230.997C177.41 232.024 177.422 232.995 177.448 233.917C177.473 234.838 177.485 235.482 177.485 235.84C177.485 236.403 177.473 237.198 177.448 238.221C177.422 239.247 177.41 240.257 177.41 241.258C177.41 242.26 177.397 243.156 177.372 243.947C177.347 244.742 177.334 245.213 177.334 245.369C177.334 246.446 177.309 248.125 177.258 250.405C177.208 252.685 177.153 255.273 177.103 258.167C177.052 261.062 176.989 264.087 176.91 267.238C176.834 270.389 176.767 273.414 176.716 276.309C176.666 279.203 176.603 281.791 176.523 284.071C176.447 286.351 176.409 288.03 176.409 289.107C176.102 289.671 175.539 290.003 174.719 290.108C174.463 290.108 174.068 290.121 173.53 290.146C172.992 290.171 172.403 290.209 171.764 290.26C171.121 290.31 170.524 290.348 169.961 290.373C169.398 290.399 169.011 290.411 168.809 290.411H166.274H163.588C163.176 289.898 162.975 289.309 162.975 288.644C162.975 287.979 162.844 287.365 162.592 286.797C161.415 287.567 160.288 288.194 159.212 288.682C158.136 289.17 157.047 289.54 155.946 289.797C154.845 290.054 153.706 290.218 152.529 290.298C151.352 290.373 150.069 290.411 148.686 290.411H144.155C141.952 290.361 139.825 289.772 137.782 288.644C135.735 287.517 134.02 286.132 132.637 284.492C132.175 283.978 131.742 283.364 131.33 282.645C130.918 281.929 130.523 281.185 130.14 280.415C129.758 279.645 129.409 278.879 129.102 278.109C128.795 277.339 128.564 276.624 128.412 275.955C128.257 275.391 128.105 274.79 127.95 274.15C127.794 273.511 127.618 272.884 127.412 272.265V267.128H127.42ZM128.728 293.108L133.642 288.19L133.949 288.034C134.356 288.034 134.718 288.265 135.025 288.724L129.724 294.029C129.619 294.029 129.518 294.004 129.417 293.954C129.211 293.853 129.11 293.773 129.11 293.722C129.06 293.672 128.997 293.621 128.917 293.567C128.841 293.516 128.774 293.436 128.723 293.335V293.259V293.108H128.728ZM136.715 289.725H136.79C136.992 289.725 137.211 289.788 137.442 289.919C137.673 290.045 137.837 290.213 137.942 290.42L132.641 295.725H132.566C132.36 295.725 132.128 295.662 131.876 295.531C131.62 295.401 131.439 295.237 131.338 295.031L136.715 289.725ZM139.636 291.11L139.792 291.034C140.098 291.034 140.342 291.072 140.523 291.147C140.704 291.223 140.918 291.311 141.175 291.417L140.943 292.107L136.719 296.335C136.614 296.385 136.5 296.448 136.374 296.528C136.244 296.604 136.13 296.667 136.029 296.722H135.798H135.722C135.567 296.671 135.327 296.608 134.991 296.528C134.659 296.453 134.44 296.385 134.339 296.335L139.636 291.11ZM145.164 291.728V292.111L140.25 297.029H138.253L143.554 291.724H145.164V291.728ZM141.477 264.516C141.477 265.799 141.708 267.166 142.167 268.63C142.629 270.09 143.268 271.437 144.088 272.665C144.907 273.894 145.904 274.92 147.085 275.741C148.262 276.561 149.569 276.969 151.003 276.969C153.256 276.969 155.215 276.536 156.879 275.661C158.544 274.79 159.923 273.624 161.028 272.165C162.13 270.705 162.949 269.039 163.487 267.166C164.025 265.294 164.294 263.338 164.294 261.285C164.294 261.184 164.294 260.978 164.294 260.67C164.294 260.363 164.294 260.044 164.294 259.711C164.294 259.379 164.282 259.072 164.257 258.79C164.231 258.508 164.219 258.289 164.219 258.138C164.219 258.087 164.181 257.999 164.105 257.868C164.03 257.742 163.962 257.624 163.912 257.523C163.349 256.909 162.71 256.215 161.991 255.449C161.272 254.679 160.503 254.065 159.687 253.602C159.532 253.501 159.2 253.32 158.687 253.064C158.174 252.807 157.842 252.63 157.686 252.525C157.48 252.525 157.11 252.513 156.572 252.487C156.034 252.462 155.471 252.437 154.883 252.412C154.294 252.386 153.731 252.361 153.193 252.336C152.655 252.311 152.281 252.273 152.079 252.222C152.028 252.222 151.873 252.172 151.616 252.067C151.36 251.966 151.204 251.911 151.154 251.911C149.872 251.911 148.758 252.193 147.812 252.757C146.862 253.32 146.017 254.023 145.277 254.869C144.533 255.714 143.894 256.674 143.356 257.751C142.818 258.828 142.318 259.854 141.86 260.826C141.809 260.927 141.755 261.133 141.704 261.44C141.654 261.747 141.629 261.954 141.629 262.055C141.629 262.156 141.603 262.53 141.553 263.17C141.502 263.809 141.477 264.259 141.477 264.516ZM149.464 292.111L144.55 297.029H142.553L147.467 292.111H149.464ZM150.465 253.598H150.54C150.591 253.598 150.628 253.585 150.654 253.56C150.679 253.535 150.717 253.522 150.767 253.522C151.024 253.522 151.238 253.56 151.419 253.636C151.6 253.712 151.814 253.804 152.07 253.905L147.156 258.823H145.542V258.516L150.465 253.598ZM154.382 291.728L149.775 296.339C149.775 296.39 149.687 296.453 149.506 296.533C149.325 296.608 149.212 296.671 149.161 296.726C149.006 296.726 148.674 296.777 148.161 296.882C147.648 296.983 147.316 297.037 147.16 297.037L152.075 292.119C152.23 291.913 152.482 291.8 152.844 291.774C153.201 291.749 153.483 291.736 153.689 291.736H154.382V291.728ZM154.689 253.905H156.762L151.461 259.131L149.771 258.823L154.689 253.905ZM158.296 254.599H158.372L158.527 254.524L158.683 254.599C158.784 254.65 158.964 254.742 159.221 254.869C159.477 254.999 159.628 255.113 159.683 255.214V255.369V255.601C159.528 255.756 159.246 256.038 158.838 256.446C158.426 256.859 157.993 257.279 157.531 257.713C157.068 258.15 156.635 258.571 156.224 258.979C155.812 259.391 155.534 259.669 155.379 259.825C155.122 260.081 154.904 260.262 154.727 260.363C154.546 260.464 154.332 260.519 154.075 260.519C153.819 260.519 153.613 260.481 153.462 260.405C153.306 260.33 153.18 260.136 153.079 259.829L158.296 254.599ZM160.679 289.725C160.629 289.776 160.566 289.889 160.486 290.07C160.41 290.251 160.343 290.365 160.293 290.415C160.188 290.516 159.986 290.735 159.679 291.067C159.372 291.4 159.036 291.732 158.678 292.069C158.321 292.401 157.989 292.734 157.678 293.07C157.371 293.402 157.14 293.621 156.989 293.722C156.938 293.823 156.833 293.903 156.682 293.954C156.526 294.004 156.425 294.029 156.375 294.029C156.169 294.029 156.068 293.928 156.068 293.722L153.382 295.031L157.3 291.11C157.707 290.697 158.245 290.403 158.914 290.226C159.578 290.045 160.167 289.881 160.679 289.725ZM155.685 261.823C155.685 261.773 155.711 261.747 155.761 261.747L160.982 256.598C161.032 256.598 161.058 256.573 161.058 256.522L161.133 256.446L161.289 256.602C161.39 256.602 161.507 256.678 161.634 256.833C161.76 256.989 161.852 257.09 161.903 257.141V257.372V257.528L156.757 262.753L156.526 262.909L156.371 262.753C156.266 262.753 156.139 262.665 155.988 262.484C155.833 262.303 155.757 262.164 155.757 262.063L155.681 261.987V261.823H155.685ZM161.907 291.11H161.982C162.033 291.11 162.058 291.097 162.058 291.072C162.058 291.046 162.083 291.034 162.134 291.034L162.209 291.11C162.31 291.11 162.441 291.185 162.592 291.341C162.748 291.497 162.848 291.623 162.899 291.724V291.879V292.111L157.989 297.029C157.939 297.08 157.884 297.105 157.833 297.105H157.527H157.22C157.115 297.105 157.039 297.08 156.989 297.029C156.883 296.928 156.795 296.798 156.72 296.646C156.644 296.491 156.652 296.39 156.757 296.339L161.907 291.11ZM161.907 228.923V230.921L156.993 235.84V233.841L161.907 228.923ZM161.907 233.151V235.532C161.6 235.89 161.318 236.197 161.062 236.454C160.805 236.71 160.549 236.954 160.293 237.186C160.036 237.417 159.83 237.607 159.679 237.762C159.473 237.918 159.204 238.12 158.872 238.376C158.54 238.633 158.346 238.759 158.296 238.759C158.191 238.759 157.976 238.684 157.644 238.528C157.312 238.372 157.094 238.221 156.993 238.065L161.907 233.151ZM160.986 269.665V269.821C160.986 270.128 160.843 270.473 160.566 270.86C160.284 271.243 159.94 271.63 159.528 272.013C159.116 272.396 158.708 272.745 158.3 273.052C157.888 273.359 157.556 273.565 157.3 273.666V273.284L160.986 269.665ZM157.682 264.129L162.903 258.823C163.004 258.924 163.084 259.143 163.134 259.476C163.185 259.808 163.21 260.027 163.21 260.128V260.283V260.515L157.989 265.74C157.939 265.639 157.876 265.42 157.796 265.088C157.72 264.756 157.682 264.537 157.682 264.436V264.204V264.129V264.129ZM162.907 263.439V263.746C162.907 264.103 162.869 264.516 162.794 264.974C162.718 265.433 162.525 265.82 162.218 266.127L157.993 270.355V268.357L162.907 263.439ZM160.293 239.454L161.907 237.762C162.008 237.863 162.088 238.082 162.138 238.414C162.188 238.747 162.214 238.965 162.214 239.066V239.222C162.214 239.479 162.125 239.698 161.945 239.874C161.764 240.055 161.571 240.143 161.369 240.143C161.163 240.143 160.932 240.106 160.679 240.03C160.423 239.954 160.297 239.786 160.297 239.529V239.454H160.293ZM167.283 292.111L162.214 297.029H160.293L165.287 292.111H167.283ZM172.197 291.728L167.283 296.726H165.287L170.201 291.728H172.197Z" fill="white"/>
<path d="M186.292 265.13V267.128L181.378 272.047V270.048L186.292 265.13ZM186.292 269.358H186.83C186.83 269.564 186.805 269.96 186.754 270.549C186.704 271.138 186.548 271.483 186.292 271.588L181.378 276.662V274.281L186.292 269.358ZM186.754 273.662H186.985V275.278L182.071 280.196L181.382 278.888L186.754 273.662ZM186.754 262.055L181.685 267.128V266.207C181.685 265.95 181.685 265.706 181.685 265.475C181.685 265.244 181.811 265 182.067 264.743L186.754 260.132V262.055ZM187.675 254.907C187.624 255.062 187.574 255.344 187.519 255.752C187.469 256.165 187.389 256.442 187.288 256.598C187.288 256.699 187.238 256.867 187.133 257.099C187.032 257.33 186.977 257.469 186.977 257.519L182.37 262.055V261.979V261.747C182.471 261.44 182.601 260.99 182.752 260.401C182.908 259.812 183.009 259.518 183.059 259.518L187.675 254.907ZM182.378 282.119L187.679 276.969L188.293 278.198L183.072 283.503H182.916H182.685C182.685 283.452 182.66 283.309 182.61 283.082C182.559 282.851 182.479 282.687 182.378 282.582V282.35V282.119V282.119ZM188.982 280.196C189.445 280.554 189.672 280.941 189.672 281.349V281.58L184.371 286.806C184.165 286.806 184.064 286.705 184.064 286.498C183.963 286.397 183.858 286.191 183.757 285.884C183.707 285.729 183.681 285.602 183.681 285.501L188.982 280.196ZM189.672 248.524C189.672 249.088 189.491 249.74 189.134 250.485C188.776 251.229 188.39 251.806 187.982 252.214C187.881 252.37 187.675 252.609 187.368 252.946C187.061 253.278 186.729 253.611 186.368 253.947C186.01 254.28 185.678 254.599 185.367 254.907C185.06 255.214 184.829 255.445 184.678 255.597V255.214C184.884 254.751 185.085 254.318 185.291 253.905C185.447 253.548 185.624 253.19 185.83 252.828C186.035 252.471 186.187 252.163 186.292 251.907C186.7 251.242 187.225 250.598 187.868 249.984C188.507 249.37 189.108 248.806 189.672 248.293V248.524V248.524ZM185.371 288.19L190.285 283.271L190.441 283.116C190.697 283.116 190.849 283.246 190.903 283.499C190.954 283.755 190.979 283.987 190.979 284.189C190.979 284.344 190.966 284.508 190.941 284.689C190.916 284.87 190.828 285.034 190.672 285.19L186.296 289.418H186.065C185.758 289.418 185.565 289.342 185.489 289.187C185.413 289.031 185.376 288.829 185.376 288.573V288.19H185.371ZM186.985 291.11L192.206 285.804L193.207 286.806L187.986 292.111H187.83H187.675C187.574 292.01 187.456 291.879 187.33 291.728C187.2 291.572 187.086 291.471 186.985 291.421V291.189V291.11ZM187.982 267.128C187.982 264.667 188.12 262.029 188.402 259.211C188.684 256.392 189.272 253.674 190.168 251.061C191.063 248.448 192.333 246.105 193.968 244.027C195.607 241.953 197.78 240.425 200.496 239.454C201.774 238.94 203.018 238.532 204.22 238.225C205.423 237.918 206.692 237.762 208.02 237.762C210.887 237.762 213.561 238.263 216.045 239.26C218.529 240.261 220.997 241.401 223.456 242.68C223.456 242.731 223.481 242.756 223.532 242.756H223.687L223.763 242.68C223.813 242.63 223.889 242.474 223.994 242.218C224.095 241.961 224.15 241.784 224.15 241.679V226.92C224.15 226.819 224.225 226.651 224.381 226.42C224.536 226.188 224.663 226.049 224.763 225.999C225.991 225.742 227.26 225.603 228.564 225.578C229.871 225.553 231.111 225.54 232.288 225.54H236.975C237.181 225.641 237.358 225.759 237.513 225.885C237.669 226.016 237.795 226.129 237.896 226.23C237.896 226.588 237.908 227.219 237.933 228.115C237.959 229.011 237.971 229.975 237.971 230.997C237.971 232.024 237.984 232.995 238.009 233.917C238.034 234.838 238.047 235.482 238.047 235.84C238.047 236.403 238.034 237.198 238.009 238.221C237.984 239.247 237.971 240.257 237.971 241.258C237.971 242.26 237.959 243.156 237.933 243.947C237.908 244.742 237.896 245.213 237.896 245.369C237.896 246.446 237.87 248.125 237.82 250.405C237.769 252.685 237.719 255.273 237.664 258.167C237.614 261.062 237.551 264.087 237.471 267.238C237.395 270.389 237.328 273.414 237.278 276.309C237.227 279.203 237.164 281.791 237.084 284.071C237.009 286.351 236.971 288.03 236.971 289.107C236.664 289.671 236.101 290.003 235.281 290.108C235.025 290.108 234.629 290.121 234.091 290.146C233.553 290.171 232.965 290.209 232.326 290.26C231.687 290.31 231.086 290.348 230.522 290.373C229.959 290.399 229.577 290.411 229.371 290.411H226.836H224.15C223.738 289.898 223.536 289.309 223.536 288.644C223.536 287.979 223.406 287.365 223.153 286.797C221.976 287.567 220.85 288.194 219.774 288.682C218.698 289.17 217.609 289.54 216.508 289.797C215.406 290.054 214.267 290.218 213.09 290.298C211.913 290.373 210.631 290.411 209.248 290.411H204.716C202.514 290.361 200.391 289.772 198.344 288.644C196.297 287.517 194.581 286.132 193.198 284.492C192.736 283.978 192.303 283.364 191.891 282.645C191.479 281.929 191.084 281.185 190.702 280.415C190.319 279.645 189.97 278.879 189.663 278.109C189.356 277.339 189.125 276.624 188.974 275.955C188.818 275.391 188.667 274.79 188.511 274.15C188.356 273.511 188.179 272.884 187.973 272.265V267.128H187.982ZM189.289 293.108L194.203 288.19L194.51 288.034C194.918 288.034 195.279 288.265 195.586 288.724L190.285 294.029C190.184 294.029 190.079 294.004 189.978 293.954C189.772 293.853 189.672 293.773 189.672 293.722C189.621 293.672 189.558 293.621 189.478 293.567C189.403 293.516 189.335 293.436 189.285 293.335V293.259V293.108H189.289ZM197.276 289.725H197.352C197.558 289.725 197.772 289.788 198.003 289.919C198.234 290.045 198.398 290.213 198.503 290.42L193.203 295.725H193.127C192.921 295.725 192.69 295.662 192.438 295.531C192.181 295.401 192 295.237 191.9 295.031L197.276 289.725ZM200.193 291.11L200.349 291.034C200.656 291.034 200.899 291.072 201.08 291.147C201.261 291.223 201.475 291.311 201.732 291.417L201.501 292.107L197.276 296.335C197.175 296.385 197.057 296.448 196.931 296.528C196.801 296.604 196.687 296.667 196.587 296.722H196.355H196.28C196.124 296.671 195.885 296.608 195.548 296.528C195.216 296.453 194.998 296.385 194.897 296.335L200.193 291.11ZM205.725 291.728V292.111L200.811 297.029H198.814L204.115 291.724H205.725V291.728ZM202.039 264.516C202.039 265.799 202.27 267.166 202.728 268.63C203.19 270.09 203.829 271.437 204.649 272.665C205.469 273.894 206.465 274.92 207.646 275.741C208.823 276.561 210.131 276.969 211.564 276.969C213.817 276.969 215.776 276.536 217.441 275.661C219.105 274.79 220.488 273.624 221.59 272.165C222.691 270.705 223.511 269.039 224.049 267.166C224.587 265.294 224.856 263.338 224.856 261.285C224.856 261.184 224.856 260.978 224.856 260.67C224.856 260.363 224.856 260.044 224.856 259.711C224.856 259.379 224.843 259.072 224.818 258.79C224.793 258.508 224.78 258.289 224.78 258.138C224.78 258.087 224.742 257.999 224.667 257.868C224.591 257.742 224.524 257.624 224.473 257.523C223.91 256.909 223.271 256.215 222.552 255.449C221.834 254.679 221.068 254.065 220.249 253.602C220.093 253.501 219.761 253.32 219.248 253.064C218.735 252.807 218.403 252.63 218.248 252.525C218.042 252.525 217.672 252.513 217.134 252.487C216.596 252.462 216.033 252.437 215.444 252.412C214.856 252.386 214.292 252.361 213.754 252.336C213.216 252.311 212.846 252.273 212.64 252.222C212.59 252.222 212.434 252.172 212.178 252.067C211.921 251.966 211.766 251.911 211.715 251.911C210.433 251.911 209.319 252.193 208.374 252.757C207.428 253.32 206.583 254.023 205.839 254.869C205.095 255.714 204.456 256.674 203.918 257.751C203.38 258.828 202.879 259.854 202.421 260.826C202.371 260.927 202.32 261.133 202.266 261.44C202.215 261.747 202.19 261.954 202.19 262.055C202.19 262.156 202.165 262.53 202.114 263.17C202.064 263.809 202.039 264.259 202.039 264.516ZM210.026 292.111L205.112 297.029H203.115L208.029 292.111H210.026ZM211.026 253.598H211.102C211.152 253.598 211.19 253.585 211.215 253.56C211.24 253.535 211.278 253.522 211.329 253.522C211.585 253.522 211.804 253.56 211.98 253.636C212.161 253.712 212.375 253.804 212.632 253.905L207.718 258.823H206.104V258.516L211.026 253.598ZM214.944 291.728L210.337 296.339C210.337 296.39 210.248 296.453 210.068 296.533C209.887 296.608 209.773 296.671 209.723 296.726C209.567 296.726 209.235 296.777 208.722 296.882C208.21 296.983 207.877 297.037 207.722 297.037L212.636 292.119C212.792 291.913 213.044 291.8 213.405 291.774C213.763 291.749 214.044 291.736 214.25 291.736H214.944V291.728ZM215.251 253.905H217.323L212.022 259.131L210.332 258.823L215.251 253.905ZM218.857 254.599H218.933L219.089 254.524L219.244 254.599C219.345 254.65 219.526 254.742 219.782 254.869C220.039 254.999 220.19 255.113 220.245 255.214V255.369V255.601C220.089 255.756 219.807 256.038 219.4 256.446C218.988 256.859 218.555 257.279 218.092 257.713C217.63 258.15 217.197 258.571 216.785 258.979C216.373 259.391 216.096 259.669 215.94 259.825C215.684 260.081 215.465 260.262 215.288 260.363C215.108 260.464 214.893 260.519 214.637 260.519C214.381 260.519 214.175 260.481 214.023 260.405C213.868 260.33 213.742 260.136 213.641 259.829L218.857 254.599ZM221.241 289.725C221.19 289.776 221.127 289.889 221.047 290.07C220.972 290.251 220.905 290.365 220.854 290.415C220.753 290.516 220.547 290.735 220.24 291.067C219.933 291.4 219.601 291.732 219.24 292.069C218.883 292.401 218.55 292.734 218.239 293.07C217.933 293.402 217.701 293.621 217.55 293.722C217.5 293.823 217.394 293.903 217.243 293.954C217.088 294.004 216.987 294.029 216.936 294.029C216.73 294.029 216.629 293.928 216.629 293.722L213.943 295.031L217.861 291.11C218.269 290.697 218.807 290.403 219.475 290.226C220.139 290.045 220.728 289.881 221.241 289.725ZM216.247 261.823C216.247 261.773 216.272 261.747 216.323 261.747L221.543 256.598C221.594 256.598 221.619 256.573 221.619 256.522L221.695 256.446L221.85 256.602C221.951 256.602 222.069 256.678 222.195 256.833C222.321 256.989 222.414 257.09 222.464 257.141V257.372V257.528L217.319 262.753L217.088 262.909L216.932 262.753C216.831 262.753 216.701 262.665 216.55 262.484C216.394 262.303 216.318 262.164 216.318 262.063L216.243 261.987V261.823H216.247ZM222.468 291.11H222.544C222.594 291.11 222.62 291.097 222.62 291.072C222.62 291.046 222.645 291.034 222.695 291.034L222.771 291.11C222.872 291.11 223.002 291.185 223.153 291.341C223.305 291.497 223.41 291.623 223.46 291.724V291.879V292.111L218.55 297.029C218.5 297.08 218.45 297.105 218.395 297.105H218.088H217.781C217.68 297.105 217.6 297.08 217.55 297.029C217.449 296.928 217.357 296.798 217.281 296.646C217.205 296.491 217.218 296.39 217.319 296.339L222.468 291.11ZM222.468 228.923V230.921L217.554 235.84V233.841L222.468 228.923ZM222.468 233.151V235.532C222.161 235.89 221.88 236.197 221.623 236.454C221.367 236.71 221.111 236.954 220.854 237.186C220.598 237.417 220.392 237.607 220.24 237.762C220.034 237.918 219.765 238.12 219.433 238.376C219.101 238.633 218.908 238.759 218.857 238.759C218.756 238.759 218.538 238.684 218.206 238.528C217.874 238.372 217.655 238.221 217.554 238.065L222.468 233.151ZM221.548 269.665V269.821C221.548 270.128 221.405 270.473 221.127 270.86C220.846 271.243 220.501 271.63 220.089 272.013C219.677 272.396 219.269 272.745 218.862 273.052C218.45 273.359 218.118 273.565 217.861 273.666V273.284L221.548 269.665ZM218.244 264.129L223.465 258.823C223.565 258.924 223.645 259.143 223.696 259.476C223.746 259.808 223.771 260.027 223.771 260.128V260.283V260.515L218.55 265.74C218.5 265.639 218.437 265.42 218.357 265.088C218.281 264.756 218.244 264.537 218.244 264.436V264.204V264.129V264.129ZM223.469 263.439V263.746C223.469 264.103 223.431 264.516 223.355 264.974C223.28 265.437 223.086 265.82 222.779 266.127L218.555 270.355V268.357L223.469 263.439ZM220.854 239.454L222.468 237.762C222.569 237.863 222.649 238.082 222.699 238.414C222.75 238.747 222.775 238.965 222.775 239.066V239.222C222.775 239.479 222.687 239.698 222.506 239.874C222.325 240.055 222.136 240.143 221.93 240.143C221.724 240.143 221.493 240.106 221.241 240.03C220.984 239.954 220.858 239.786 220.858 239.529V239.454H220.854ZM227.845 292.111L222.775 297.029H220.854L225.848 292.111H227.845ZM232.759 291.728L227.845 296.726H225.848L230.762 291.728H232.759Z" fill="white"/>
<path d="M246.858 247.602L247.32 247.91C247.219 248.011 247.114 248.141 247.013 248.292C246.807 248.6 246.681 248.806 246.631 248.907C246.324 249.214 245.925 249.614 245.441 250.097C244.954 250.585 244.483 251.057 244.02 251.519C243.558 251.982 243.163 252.378 242.831 252.71C242.499 253.042 242.305 253.211 242.255 253.211H241.948V252.521L246.858 247.602ZM242.94 254.826L248.241 249.601C248.396 249.702 248.548 249.87 248.703 250.102C248.859 250.333 248.934 250.552 248.934 250.754L248.859 250.829L243.638 256.21C243.175 255.853 242.948 255.44 242.948 254.982V254.826H242.94ZM244.63 257.443L249.851 252.218C250.313 252.474 250.54 252.882 250.54 253.446V253.522L245.239 258.747C245.084 258.646 244.933 258.478 244.777 258.247C244.621 258.015 244.546 257.771 244.546 257.515L244.63 257.443ZM251.541 255.213C252.003 255.369 252.23 255.701 252.23 256.215V256.446L246.854 261.751L246.164 260.443L251.541 255.213ZM247.854 263.051L253.155 257.746C253.31 257.902 253.449 258.078 253.575 258.285C253.701 258.491 253.769 258.697 253.769 258.899V259.13C253.769 259.181 253.731 259.298 253.655 259.475C253.579 259.656 253.512 259.77 253.462 259.82L249.237 264.048C249.187 264.099 249.069 264.162 248.892 264.242C248.712 264.318 248.598 264.356 248.548 264.356C248.447 264.356 248.291 264.2 248.085 263.893C247.984 263.737 247.905 263.56 247.854 263.354V263.123V263.051ZM262.983 304.488C262.983 304.387 263.033 304.168 263.138 303.836C263.239 303.504 263.294 303.285 263.294 303.184C263.395 302.978 263.626 302.439 263.983 301.568C264.341 300.697 264.74 299.763 265.173 298.762C265.606 297.761 265.993 296.839 266.325 295.994C266.657 295.148 266.875 294.597 266.976 294.34C266.976 294.29 267.027 294.121 267.132 293.84C267.233 293.558 267.338 293.263 267.439 292.956C267.54 292.649 267.632 292.354 267.708 292.073C267.783 291.791 267.847 291.572 267.901 291.42C268.002 291.265 268.132 290.869 268.284 290.23C268.439 289.59 268.54 289.191 268.591 289.039C268.797 288.475 269.078 287.912 269.436 287.348C269.793 286.784 269.974 286.145 269.974 285.425L269.898 285.118C269.435 283.427 268.834 281.904 268.095 280.545C267.351 279.186 266.543 277.764 265.673 276.279C265.518 276.022 265.261 275.564 264.904 274.895C264.547 274.23 264.173 273.523 263.79 272.783C263.408 272.042 263.046 271.335 262.714 270.671C262.382 270.006 262.163 269.543 262.062 269.286L248.543 247.224C248.493 247.173 248.468 247.098 248.468 246.992V246.61V246.227C248.468 246.126 248.493 246.021 248.543 245.92C248.644 245.819 248.913 245.638 249.351 245.381C249.784 245.124 250.082 244.998 250.233 244.998C250.49 244.948 250.973 244.817 251.692 244.615C252.407 244.409 253.163 244.207 253.958 244.001C254.752 243.795 255.517 243.606 256.261 243.425C257.001 243.244 257.527 243.105 257.838 243.004C257.888 243.004 258.245 242.953 258.914 242.848C259.578 242.747 260.066 242.693 260.372 242.693H260.755H261.062C261.112 242.693 261.217 242.781 261.369 242.962C261.524 243.143 261.65 243.256 261.751 243.307C262.008 243.719 262.466 244.447 263.134 245.499C263.798 246.551 264.492 247.653 265.207 248.806C265.921 249.959 266.602 251.048 267.241 252.075C267.88 253.101 268.33 253.817 268.586 254.229C268.637 254.33 268.78 254.574 269.007 254.961C269.238 255.344 269.482 255.756 269.738 256.189C269.995 256.627 270.238 257.035 270.47 257.418C270.701 257.801 270.839 258.045 270.89 258.15C270.94 258.251 271.109 258.495 271.39 258.882C271.672 259.265 271.966 259.677 272.273 260.11C272.58 260.548 272.849 260.956 273.08 261.339C273.311 261.722 273.45 261.966 273.5 262.071C273.551 262.227 273.681 262.467 273.883 262.803C274.089 263.135 274.291 263.493 274.497 263.88C274.703 264.263 274.892 264.637 275.073 264.995C275.253 265.353 275.392 265.609 275.493 265.765L275.8 265.382C275.8 265.226 275.838 264.999 275.913 264.692C275.989 264.385 276.069 264.065 276.144 263.733C276.22 263.401 276.283 263.081 276.338 262.774C276.388 262.467 276.439 262.235 276.493 262.084C276.544 261.928 276.594 261.726 276.649 261.469C276.699 261.213 276.762 260.944 276.842 260.662C276.918 260.38 276.981 260.123 277.036 259.892C277.086 259.66 277.137 259.521 277.191 259.471L283.03 243.021C283.337 242.251 283.745 241.687 284.257 241.33C284.77 240.972 285.485 240.791 286.41 240.791H299.466L299.849 241.022C299.849 241.123 299.874 241.292 299.924 241.523C299.975 241.754 300 241.919 300 242.024C300 242.179 299.975 242.419 299.924 242.756C299.874 243.088 299.849 243.282 299.849 243.332C299.849 243.433 299.798 243.677 299.693 244.064C299.592 244.447 299.462 244.885 299.311 245.373C299.155 245.861 299.004 246.349 298.848 246.833C298.693 247.321 298.567 247.691 298.466 247.947C296.877 253.072 295.111 258.108 293.165 263.051C291.219 267.999 289.171 272.93 287.019 277.848C286.662 278.719 286.355 279.602 286.099 280.499C285.842 281.395 285.586 282.278 285.329 283.149C285.329 283.25 285.292 283.507 285.216 283.919C285.14 284.331 285.073 284.638 285.023 284.84C284.922 285.354 284.716 285.8 284.409 286.187C284.102 286.57 283.871 286.969 283.719 287.377C283.719 287.428 283.682 287.558 283.606 287.76C283.53 287.966 283.45 288.181 283.375 288.412C283.299 288.644 283.232 288.863 283.181 289.064C283.131 289.271 283.08 289.397 283.026 289.447C283.026 289.498 282.975 289.653 282.87 289.91C282.769 290.167 282.664 290.449 282.563 290.756C282.463 291.063 282.357 291.332 282.257 291.564C282.156 291.795 282.101 291.934 282.101 291.984C282 292.085 281.92 292.418 281.87 292.986C281.819 293.549 281.794 293.882 281.794 293.987C281.744 294.088 281.626 294.37 281.449 294.833C281.269 295.295 281.155 295.573 281.105 295.678C281.004 295.935 280.798 296.524 280.491 297.445C280.184 298.367 279.839 299.368 279.453 300.445C279.07 301.522 278.721 302.519 278.414 303.445C278.108 304.37 277.927 304.955 277.876 305.212C277.67 305.725 277.464 306.146 277.263 306.478C277.057 306.81 276.699 307.054 276.187 307.21H273.727H271.268C271.167 307.21 270.831 307.16 270.268 307.054C269.705 306.953 269.372 306.899 269.267 306.899C269.166 306.848 268.935 306.81 268.578 306.785C268.221 306.76 267.834 306.722 267.426 306.672C267.014 306.621 266.632 306.583 266.274 306.558C265.917 306.533 265.711 306.52 265.661 306.52C265.097 306.47 264.509 306.364 263.895 306.213C263.281 306.062 262.975 305.624 262.975 304.905V304.488H262.983ZM249.544 266.051L254.765 260.826C255.278 260.981 255.534 261.289 255.534 261.747C255.534 261.798 255.521 261.835 255.496 261.861C255.471 261.886 255.458 261.924 255.458 261.974V262.05L250.238 267.275C250.137 267.225 250.006 267.069 249.855 266.813C249.699 266.556 249.599 266.379 249.548 266.274V266.198V266.051H249.544ZM251.234 268.664L256.455 263.358C256.968 263.716 257.224 264.078 257.224 264.435L257.148 264.743L251.772 269.968C251.721 269.867 251.616 269.699 251.465 269.467C251.309 269.236 251.234 269.072 251.234 268.967C251.183 268.967 251.158 268.941 251.158 268.891C251.108 268.891 251.082 268.84 251.082 268.735L251.234 268.664ZM258.069 266.282H258.3H258.376C258.426 266.383 258.489 266.463 258.569 266.514C258.645 266.564 258.708 266.615 258.762 266.67C258.813 266.72 258.889 266.85 258.994 267.052C259.044 267.153 259.069 267.233 259.069 267.284L253.769 272.589H253.693H253.462C253.361 272.433 253.218 272.257 253.041 272.051C252.861 271.844 252.772 271.693 252.772 271.588L258.069 266.282ZM254.765 273.893L259.759 268.975H259.834H260.066L260.221 269.131L260.377 269.286C260.377 269.337 260.402 269.387 260.452 269.442C260.503 269.493 260.553 269.572 260.608 269.673L260.763 269.981C260.713 270.031 260.608 270.187 260.457 270.443C260.301 270.7 260.175 270.881 260.074 270.982L255.774 275.286H255.467C255.16 275.286 254.967 275.172 254.891 274.941C254.815 274.709 254.777 274.465 254.777 274.209V273.893H254.765ZM256.455 276.813L261.755 271.588C261.911 271.844 261.999 272.063 262.025 272.24C262.05 272.421 262.062 272.61 262.062 272.816V273.279L257.148 278.197H256.917C256.661 278.197 256.522 278.071 256.497 277.814C256.472 277.558 256.459 277.326 256.459 277.124V276.813H256.455ZM256.686 312.25L256.762 312.175L256.837 312.099L262.058 306.874C262.109 306.773 262.251 306.81 262.478 306.987C262.71 307.168 262.874 307.307 262.979 307.408V307.639V307.871L258.065 312.789H257.682C257.476 312.789 257.262 312.764 257.031 312.713C256.804 312.658 256.686 312.507 256.686 312.25ZM262.062 302.41C262.062 302.973 261.999 303.512 261.869 304.025C261.739 304.539 261.474 305.027 261.062 305.485C260.805 305.742 260.473 306.074 260.061 306.486C259.649 306.895 259.254 307.294 258.872 307.677C258.489 308.06 258.153 308.392 257.871 308.678C257.59 308.96 257.422 309.099 257.371 309.099H257.14C257.241 308.586 257.384 308.009 257.56 307.37C257.741 306.73 258.01 306.23 258.367 305.872L262.054 302.258V302.41H262.062ZM257.838 279.889L262.983 274.583L263.672 275.892L258.372 281.197C258.216 281.096 258.065 280.915 257.909 280.658C257.754 280.402 257.678 280.17 257.678 279.968L257.838 279.889ZM259.376 282.808L264.677 277.503C264.727 277.604 264.841 277.772 265.022 278.004C265.202 278.235 265.291 278.399 265.291 278.504V278.58C265.291 278.631 265.303 278.656 265.329 278.656C265.354 278.656 265.366 278.681 265.366 278.732L265.291 278.807L260.07 284.113C259.607 283.856 259.38 283.473 259.38 282.96V282.808H259.376ZM266.981 308.098L262.067 313.016H260.07L264.984 308.098H266.981ZM265.291 294.647C265.24 294.803 265.135 295.081 264.984 295.493C264.828 295.901 264.727 296.183 264.677 296.339C264.521 296.595 264.32 296.966 264.063 297.454C263.807 297.942 263.681 298.211 263.681 298.261C263.58 298.417 263.374 298.644 263.067 298.951C262.76 299.258 262.428 299.591 262.067 299.953C261.709 300.31 261.377 300.643 261.066 300.954C260.759 301.261 260.528 301.467 260.377 301.568V301.413V301.257C260.427 301.101 260.532 300.769 260.684 300.256C260.839 299.742 260.965 299.41 261.066 299.254C261.066 299.204 261.117 299.073 261.222 298.871L261.377 298.564L265.291 294.647ZM261.066 285.421L266.287 280.196C266.8 280.658 267.056 281.067 267.056 281.424C267.056 281.525 267.044 281.605 267.018 281.656C266.993 281.706 266.981 281.786 266.981 281.887C266.825 282.043 266.543 282.308 266.136 282.695C265.724 283.078 265.291 283.503 264.828 283.961C264.366 284.424 263.946 284.857 263.563 285.27C263.18 285.682 262.911 285.96 262.756 286.115C262.655 286.166 262.474 286.271 262.218 286.422C261.961 286.578 261.806 286.704 261.755 286.805C261.293 286.448 261.066 286.035 261.066 285.577V285.421ZM267.67 287.727C267.514 288.139 267.401 288.648 267.325 289.262C267.25 289.876 267.031 290.364 266.674 290.722L262.298 294.95C262.399 294.9 262.479 294.795 262.529 294.643C262.579 294.488 262.655 294.387 262.76 294.336C262.811 294.13 262.954 293.697 263.181 293.028C263.412 292.363 263.576 291.925 263.681 291.719L267.67 287.727ZM262.6 288.959C262.6 288.804 262.626 288.677 262.676 288.576C262.676 288.475 262.701 288.395 262.752 288.345L267.666 283.427C267.821 283.582 267.897 283.709 267.897 283.81C267.998 283.911 268.09 284.092 268.166 284.348C268.242 284.605 268.28 284.76 268.28 284.811L262.979 290.036C262.722 289.986 262.596 289.83 262.596 289.574C262.596 289.317 262.6 289.111 262.6 288.959ZM269.284 308.405H270.898V308.788L265.984 313.706C265.934 313.757 265.854 313.782 265.753 313.782C265.652 313.832 265.522 313.857 265.371 313.857C265.27 313.857 265.076 313.845 264.795 313.82C264.513 313.794 264.345 313.651 264.294 313.399L269.284 308.405ZM275.199 308.792L270.591 313.403C270.386 313.66 270.154 313.773 269.902 313.748C269.646 313.723 269.389 313.71 269.133 313.71H268.288L273.202 308.792H275.199ZM279.112 249.601C278.755 251.242 278.204 252.521 277.46 253.446C276.716 254.368 275.733 255.369 274.505 256.446C274.455 256.547 274.337 256.627 274.16 256.677C273.98 256.728 273.866 256.753 273.816 256.753C273.866 256.597 273.98 256.265 274.16 255.752C274.341 255.239 274.455 254.931 274.505 254.83C274.556 254.675 274.669 254.435 274.85 254.098C275.031 253.766 275.144 253.572 275.194 253.522L279.112 249.601ZM273.816 259.442L276.502 256.753C276.401 257.01 276.233 257.523 276.002 258.289C275.77 259.054 275.606 259.572 275.501 259.824C275.451 259.925 275.295 260.094 275.039 260.325C274.782 260.556 274.602 260.721 274.501 260.826C274.038 260.468 273.811 260.031 273.811 259.517V259.442H273.816ZM281.109 244.296C281.059 244.502 280.903 244.847 280.647 245.335C280.39 245.823 280.209 246.117 280.108 246.218C280.008 246.374 279.776 246.631 279.419 246.988C279.062 247.346 278.688 247.72 278.305 248.103C277.923 248.486 277.561 248.848 277.229 249.18C276.897 249.513 276.653 249.757 276.498 249.912V249.681V249.605C276.598 249.399 276.716 249.13 276.842 248.797C276.968 248.465 277.086 248.271 277.187 248.221L281.109 244.296Z" fill="white"/>
</svg>
